<svg width="304" height="40" viewBox="0 0 304 40" fill="none" xmlns="http://www.w3.org/2000/svg">
<path d="M0 7.54357C0.000342776 1.75121 6.26511 -1.87332 11.2871 1.01329L19.2725 5.60314C22.7319 7.59162 26.9877 7.59146 30.4473 5.60314L38.4326 1.01329C43.4547 -1.87341 49.7207 1.7519 49.7207 7.54454V32.4557C49.7204 38.248 43.4546 41.8726 38.4326 38.986L30.4473 34.3961C26.9877 32.4078 22.7319 32.4077 19.2725 34.3961L11.2871 38.986C6.26508 41.8726 0.000282497 38.248 0 32.4557V7.54357Z" fill="black"/>
<path fill-rule="evenodd" clip-rule="evenodd" d="M117.01 9.74767C119.446 9.74767 121.659 10.3045 123.65 11.4186C125.685 12.5179 127.267 14.0486 128.396 16.0094C129.524 17.9852 130.09 20.1837 130.09 22.6051C130.09 25.0115 129.524 27.2026 128.396 29.1783C127.267 31.1539 125.693 32.6914 123.672 33.7906C121.667 34.9047 119.386 35.4625 116.831 35.4625C114.484 35.4625 112.323 34.8972 110.347 33.7682C108.386 32.6392 106.826 31.1094 105.668 29.1783C104.524 27.2322 103.952 25.0927 103.952 22.7604C103.952 20.2054 104.509 17.9553 105.623 16.0094C106.752 14.0485 108.334 12.5103 110.369 11.3961C112.36 10.2969 114.573 9.74769 117.01 9.74767ZM117.01 14.1373C115.48 14.1373 114.061 14.5088 112.754 15.2516C111.446 15.9944 110.406 17.0043 109.634 18.2818C108.876 19.5593 108.498 20.9637 108.498 22.4938C108.498 24.8258 109.352 26.8385 111.06 28.5318C112.828 30.2996 114.848 31.1832 117.121 31.1832C118.651 31.1832 120.062 30.7974 121.354 30.025C122.646 29.2378 123.672 28.1906 124.43 26.8834C125.187 25.5614 125.565 24.1351 125.565 22.6051C125.565 21.0601 125.18 19.6407 124.408 18.3483C123.65 17.056 122.61 16.0316 121.288 15.274C119.981 14.5164 118.555 14.1373 117.01 14.1373Z" fill="black"/>
<path fill-rule="evenodd" clip-rule="evenodd" d="M184.488 9.74767C186.865 9.74773 189.019 10.3196 190.95 11.4635C192.896 12.6369 194.374 14.2115 195.384 16.1871C196.395 18.148 196.9 20.3247 196.9 22.7164C196.9 23.1769 196.863 23.7785 196.788 24.5211H176.734C176.971 25.7838 177.447 26.8983 178.16 27.8639C178.888 28.8144 179.794 29.5501 180.878 30.0699C181.963 30.5898 183.166 30.8492 184.488 30.8492C186.092 30.8492 187.422 30.5669 188.477 30.0026C189.546 29.4381 190.453 28.5098 191.195 27.2174H196.142C194.954 30.0398 193.394 32.1197 191.463 33.4567C189.546 34.7936 187.221 35.4625 184.488 35.4625C182.141 35.4625 180.009 34.9047 178.093 33.7906C176.162 32.6617 174.654 31.1167 173.569 29.1559C172.47 27.1654 171.92 24.9818 171.92 22.6051C171.92 20.1985 172.463 18.0218 173.547 16.0758C174.646 14.0851 176.162 12.5328 178.093 11.4186C180.009 10.3045 182.141 9.74767 184.488 9.74767ZM184.488 14.2486C182.587 14.2486 180.953 14.776 179.586 15.8307C178.219 16.8855 177.306 18.3115 176.845 20.109H192.087C191.626 18.3115 190.712 16.8855 189.346 15.8307C187.994 14.7761 186.375 14.2487 184.488 14.2486Z" fill="black"/>
<path d="M247.103 23.8531C247.103 25.3236 247.355 26.6084 247.86 27.7076C248.38 28.792 249.108 29.631 250.044 30.2252C250.98 30.8046 252.071 31.0943 253.319 31.0943C254.582 31.0943 255.681 30.8046 256.617 30.2252C257.568 29.631 258.296 28.792 258.801 27.7076C259.321 26.6084 259.581 25.3236 259.581 23.8531V10.2828H264.26V24.4547C264.26 26.6235 263.807 28.54 262.901 30.2037C261.995 31.8675 260.71 33.1596 259.046 34.0807C257.397 35.0016 255.496 35.4625 253.342 35.4625C251.202 35.4625 249.301 35.0016 247.637 34.0807C245.988 33.1596 244.703 31.8673 243.782 30.2037C242.876 28.5252 242.423 26.6086 242.423 24.4547V10.2828H247.103V23.8531Z" fill="black"/>
<path d="M91.6709 9.74767C93.3791 9.74767 94.9613 10.1707 96.417 11.0172C97.8727 11.849 99.0243 12.9932 99.8711 14.4488C100.733 15.9046 101.164 17.517 101.164 19.2848V34.9274H96.4395L96.417 20.443C96.402 18.3932 95.9565 16.8338 95.0801 15.7643C94.2037 14.6799 92.978 14.1373 91.4033 14.1373C90.3934 14.1374 89.4429 14.4567 88.5518 15.0953C87.6605 15.7341 86.9402 16.6034 86.3906 17.7027C85.8559 18.802 85.5879 20.0049 85.5879 21.3121V34.9274H80.9082V20.443C80.9082 18.3932 80.4626 16.8338 79.5713 15.7643C78.695 14.68 77.4623 14.1374 75.873 14.1373C74.8629 14.1373 73.9041 14.4565 72.998 15.0953C72.1066 15.7341 71.3866 16.6034 70.8369 17.7027C70.3022 18.802 70.0342 20.005 70.0342 21.3121V34.9274H65.2656V10.2604H70.0342V12.6891C71.9208 10.7282 74.1715 9.74768 76.7861 9.74767C79.8314 9.74767 82.1117 11.0921 83.627 13.7809C84.6073 12.4885 85.7883 11.4927 87.1699 10.7945C88.5662 10.0964 90.0666 9.74771 91.6709 9.74767Z" fill="black"/>
<path d="M159.64 9.74767C161.348 9.74767 162.93 10.1706 164.386 11.0172C165.842 11.849 166.993 12.9932 167.84 14.4488C168.702 15.9046 169.132 17.517 169.132 19.2848V34.9274H164.408L164.386 20.443C164.371 18.3933 163.926 16.8338 163.049 15.7643C162.173 14.6799 160.947 14.1374 159.372 14.1373C158.362 14.1373 157.412 14.4565 156.52 15.0953C155.629 15.7341 154.908 16.6035 154.359 17.7027C153.824 18.802 153.557 20.0049 153.557 21.3121V34.9274H148.877V20.443C148.877 18.3933 148.431 16.8338 147.54 15.7643C146.664 14.6799 145.431 14.1373 143.841 14.1373C142.831 14.1373 141.873 14.4565 140.967 15.0953C140.075 15.7341 139.355 16.6035 138.805 17.7027C138.27 18.8019 138.003 20.005 138.003 21.3121V34.9274H133.234V10.2604H138.003V12.6891C139.89 10.7282 142.14 9.74767 144.755 9.74767C147.8 9.74767 150.08 11.0921 151.596 13.7809C152.576 12.4885 153.757 11.4927 155.139 10.7945C156.535 10.0964 158.035 9.7477 159.64 9.74767Z" fill="black"/>
<path d="M211.721 9.74767C213.577 9.74767 215.278 10.2076 216.823 11.1285C218.368 12.0496 219.587 13.3124 220.479 14.9166C221.37 16.521 221.815 18.3043 221.815 20.2652V34.9274H217.135V21.1344C217.135 18.8318 216.623 17.0931 215.598 15.9195C214.588 14.7314 213.124 14.1373 211.208 14.1373C210.02 14.1373 208.92 14.4718 207.91 15.1402C206.915 15.7938 206.12 16.6851 205.526 17.8141C204.947 18.9431 204.657 20.1763 204.657 21.5133V34.9274H199.955V10.2604H204.278V13.0231C205.229 11.9238 206.313 11.1066 207.531 10.5719C208.764 10.0223 210.161 9.74771 211.721 9.74767Z" fill="black"/>
<path d="M232.104 4.56017V10.2828H239.367V14.65H232.104V25.9918C232.104 27.4327 232.504 28.5396 233.306 29.3121C234.108 30.0846 235.252 30.4703 236.738 30.4703H239.367V34.9274H236.248C234.509 34.9273 232.979 34.571 231.657 33.858C230.335 33.1301 229.31 32.1049 228.582 30.7828C227.854 29.4458 227.49 27.8857 227.49 26.1031V14.65H223.413V10.2828H227.49V4.53771L232.104 4.56017Z" fill="black"/>
<path d="M293.984 9.74767C295.692 9.74771 297.275 10.1705 298.73 11.0172C300.186 11.8491 301.338 12.9931 302.185 14.4488C303.047 15.9046 303.477 17.517 303.477 19.2848V34.9274H298.752L298.73 20.443C298.715 18.3934 298.27 16.8338 297.394 15.7643C296.518 14.6799 295.291 14.1373 293.717 14.1373C292.706 14.1374 291.756 14.4567 290.864 15.0953C289.973 15.7341 289.252 16.6034 288.703 17.7027C288.168 18.8019 287.901 20.005 287.901 21.3121V34.9274H283.221V20.443C283.221 18.3932 282.776 16.8338 281.884 15.7643C281.008 14.68 279.775 14.1374 278.186 14.1373C277.176 14.1373 276.217 14.4567 275.312 15.0953C274.42 15.7341 273.699 16.6034 273.149 17.7027C272.615 18.802 272.347 20.005 272.347 21.3121V34.9274H267.579V10.2604H272.347V12.6891C274.234 10.7283 276.484 9.74778 279.099 9.74767C282.144 9.74767 284.425 11.0921 285.94 13.7809C286.92 12.4885 288.101 11.4927 289.483 10.7945C290.879 10.0965 292.38 9.74767 293.984 9.74767Z" fill="black"/>
</svg>
