<svg width="210" height="38" viewBox="0 0 210 38" fill="none" xmlns="http://www.w3.org/2000/svg">
<path fill-rule="evenodd" clip-rule="evenodd" d="M13.1563 0.920885C16.9706 -0.311867 21.0776 -0.3069 24.8887 0.935533C28.6998 2.17795 32.0202 4.59409 34.3751 7.83788C36.73 11.0818 37.9992 14.9876 38.0001 18.9961C38.0081 22.0345 37.2806 25.0302 35.88 27.7265C32.7153 32.6085 38.2417 36.7131 38.2598 36.7265C38.2273 36.7254 27.1972 36.3279 24.7901 37.0967C20.9722 38.3182 16.8652 38.3005 13.0577 37.0469C9.25024 35.7932 5.93627 33.3679 3.59089 30.1172C1.24555 26.8664 -0.0108478 22.9567 7.05631e-05 18.9482C0.0110445 14.9397 1.28927 11.0368 3.65241 7.79881C6.0155 4.56105 9.3422 2.15366 13.1563 0.920885ZM14.0528 9.74901C13.3864 9.38107 12.5697 9.86287 12.5694 10.624V26.2881C12.5697 27.0492 13.3864 27.531 14.0528 27.1631L28.2344 19.331C28.9228 18.9506 28.9228 17.9615 28.2344 17.581L14.0528 9.74901Z" fill="black"/>
<path d="M56.8507 12.3662C56.9254 12.3557 57.0016 12.372 57.0655 12.4121C57.1294 12.4523 57.1773 12.514 57.2003 12.5859L60.4405 20.916H60.5206L62.5801 12.8564C62.6042 12.7792 62.6493 12.7096 62.71 12.6562C62.7732 12.5994 62.8555 12.5674 62.9405 12.5664H64.8008C64.8628 12.5617 64.9253 12.5714 64.9825 12.5957C65.0397 12.62 65.0902 12.6582 65.13 12.706C65.1747 12.7663 65.1965 12.8412 65.1905 12.916C65.1947 12.9625 65.1947 13.0101 65.1905 13.0566L61.3301 26.6465C61.309 26.7276 61.2595 26.799 61.1905 26.8467C61.1241 26.8965 61.0431 26.9236 60.96 26.9258H60.6407C60.5658 26.9364 60.489 26.9201 60.4249 26.8799C60.361 26.8396 60.313 26.778 60.2901 26.706L56.6807 17.5459H56.5704L53.0001 26.706C52.9732 26.7734 52.9261 26.8307 52.8653 26.8701C52.8044 26.9095 52.7327 26.9288 52.6602 26.9258H52.3301C52.2476 26.9218 52.1679 26.8947 52.1007 26.8467C52.0665 26.824 52.0371 26.7941 52.0147 26.7598C51.9925 26.7255 51.9776 26.6868 51.9708 26.6465L48.13 13.0566C48.1258 13.0101 48.1258 12.9625 48.13 12.916C48.1367 12.8416 48.161 12.7695 48.2003 12.706C48.2379 12.6583 48.2871 12.6201 48.3428 12.5957C48.3986 12.5714 48.4599 12.5616 48.5206 12.5664H50.3907C50.4721 12.5699 50.5499 12.6016 50.6104 12.6562C50.6772 12.7062 50.726 12.7766 50.7501 12.8564L52.8507 20.916H52.9307L56.1407 12.5859C56.1637 12.514 56.2116 12.4523 56.2755 12.4121C56.3394 12.372 56.4156 12.3556 56.4903 12.3662H56.8507Z" fill="black"/>
<path d="M115.601 21.3057V12.9961C115.602 12.8955 115.641 12.7985 115.71 12.7256C115.747 12.6897 115.791 12.6614 115.839 12.6426C115.887 12.6237 115.939 12.6151 115.99 12.6162H117.851C117.901 12.6166 117.952 12.6269 117.998 12.6474C118.044 12.6681 118.086 12.6989 118.12 12.7363C118.156 12.7693 118.186 12.8092 118.206 12.8535C118.227 12.8981 118.239 12.947 118.24 12.9961V26.5664C118.24 26.6142 118.23 26.662 118.209 26.7051C118.188 26.7482 118.158 26.7865 118.12 26.8164C118.047 26.8855 117.951 26.9243 117.851 26.9258H117.37L109 17.6455V26.3457C108.999 26.4462 108.96 26.5433 108.891 26.6162C108.815 26.687 108.714 26.7257 108.61 26.7256H106.75C106.699 26.7252 106.649 26.7149 106.603 26.6943C106.556 26.6737 106.515 26.6437 106.481 26.6064C106.431 26.5803 106.388 26.5429 106.356 26.498C106.323 26.453 106.3 26.4005 106.29 26.3457V12.7363C106.29 12.687 106.301 12.6376 106.321 12.5928C106.342 12.5479 106.373 12.5075 106.41 12.4756C106.483 12.4064 106.58 12.3676 106.681 12.3662H107.19L115.601 21.3057Z" fill="black"/>
<path d="M161.311 12.3662C163.115 12.3739 164.855 13.0426 166.2 14.2461C166.242 14.2806 166.276 14.3241 166.299 14.373C166.322 14.4222 166.334 14.4769 166.334 14.5312C166.334 14.5855 166.322 14.6393 166.299 14.6885C166.276 14.7376 166.242 14.7817 166.2 14.8164L165.63 15.376C165.48 15.5458 165.31 15.5358 165.11 15.376C164.564 14.9021 163.946 14.5176 163.28 14.2363C162.65 13.9592 161.969 13.8122 161.28 13.8056C160.531 13.7928 159.787 13.9388 159.098 14.2334C158.409 14.528 157.789 14.965 157.28 15.5156C156.753 16.0564 156.337 16.6967 156.058 17.3984C155.778 18.1002 155.64 18.851 155.65 19.6064C155.634 21.1369 156.22 22.6125 157.28 23.7158C157.784 24.2746 158.402 24.7194 159.092 25.0195C159.782 25.3196 160.528 25.4684 161.28 25.456C161.92 25.4598 162.558 25.3861 163.18 25.2363C163.633 25.1485 164.073 25.0034 164.49 24.8057L164.92 24.6064V21.7558H162.59C162.54 21.7567 162.49 21.7474 162.443 21.7285C162.397 21.7097 162.355 21.6818 162.32 21.6465C162.282 21.6155 162.252 21.5746 162.232 21.5293C162.214 21.4841 162.206 21.4345 162.21 21.3857V20.6357C162.201 20.584 162.206 20.5304 162.222 20.4805C162.238 20.4307 162.265 20.3846 162.302 20.3476C162.339 20.3107 162.385 20.2836 162.435 20.2676C162.485 20.2516 162.538 20.2472 162.59 20.2558H166.09C166.184 20.2583 166.274 20.2982 166.34 20.3662C166.378 20.3997 166.408 20.4415 166.427 20.4883C166.446 20.5349 166.454 20.5855 166.45 20.6357V25.2656C166.454 25.3295 166.44 25.3936 166.412 25.4512C166.384 25.5088 166.342 25.5587 166.29 25.5957L165.7 25.916C165.111 26.2188 164.486 26.4469 163.84 26.5957C163.011 26.8153 162.157 26.9263 161.3 26.9258C160.348 26.9378 159.404 26.7571 158.524 26.3945C157.645 26.0319 156.847 25.4955 156.18 24.8164C155.482 24.1539 154.929 23.3538 154.554 22.4678C154.179 21.5818 153.99 20.628 154 19.666C153.999 18.7062 154.187 17.755 154.554 16.8682C154.921 15.9815 155.46 15.1761 156.139 14.498C156.818 13.8199 157.624 13.2818 158.512 12.916C159.399 12.5502 160.351 12.3636 161.311 12.3662Z" fill="black"/>
<path d="M100.19 12.6162C100.241 12.6166 100.292 12.6269 100.338 12.6474C100.384 12.6681 100.426 12.6989 100.46 12.7363C100.495 12.7699 100.523 12.8099 100.542 12.8545C100.561 12.8991 100.57 12.9476 100.57 12.9961V26.3955C100.571 26.4439 100.561 26.4925 100.542 26.5371C100.523 26.5817 100.495 26.6226 100.46 26.6562C100.426 26.6935 100.384 26.7236 100.338 26.7441C100.292 26.7648 100.241 26.776 100.19 26.7764H98.3204C98.271 26.7765 98.2217 26.7658 98.1768 26.7451C98.1321 26.7244 98.0925 26.6938 98.0606 26.6562C98.018 26.6176 97.9848 26.5692 97.9639 26.5156C97.9432 26.4618 97.9349 26.4031 97.9405 26.3457V12.9961C97.9423 12.947 97.9541 12.8981 97.9747 12.8535C97.9952 12.8092 98.0246 12.7693 98.0606 12.7363C98.0925 12.6988 98.1321 12.6681 98.1768 12.6474C98.2217 12.6268 98.271 12.6161 98.3204 12.6162H100.19Z" fill="black"/>
<path d="M194.28 12.6064C194.331 12.6064 194.381 12.6162 194.428 12.6357C194.474 12.6554 194.517 12.6844 194.553 12.7207C194.588 12.757 194.616 12.8004 194.635 12.8476C194.653 12.8948 194.662 12.9455 194.66 12.9961V13.5762C194.662 13.6267 194.653 13.6775 194.635 13.7246C194.616 13.7718 194.588 13.8152 194.553 13.8515C194.517 13.8878 194.475 13.9168 194.428 13.9365C194.381 13.9561 194.331 13.9658 194.28 13.9658H187.481V18.8965H193.29C193.341 18.8965 193.392 18.9061 193.439 18.9258C193.485 18.9454 193.527 18.9746 193.563 19.0107C193.598 19.047 193.626 19.0905 193.645 19.1377C193.663 19.1848 193.671 19.2355 193.67 19.2861V19.8662C193.671 19.9168 193.663 19.9675 193.645 20.0146C193.626 20.0618 193.598 20.1053 193.563 20.1416C193.527 20.1778 193.485 20.2069 193.439 20.2265C193.392 20.2463 193.341 20.2559 193.29 20.2558H187.481V25.4062H194.28C194.331 25.4047 194.382 25.4148 194.429 25.4355C194.475 25.4563 194.518 25.4874 194.551 25.5264C194.588 25.5598 194.618 25.6018 194.637 25.6484C194.656 25.6951 194.664 25.7456 194.66 25.7959V26.3857C194.662 26.4358 194.653 26.4867 194.634 26.5332C194.615 26.5794 194.587 26.6215 194.551 26.6562C194.516 26.6919 194.473 26.7203 194.427 26.7392C194.38 26.7581 194.33 26.7675 194.28 26.7666H186.28C186.23 26.7675 186.18 26.7581 186.134 26.7392C186.088 26.7204 186.046 26.6918 186.011 26.6562C185.969 26.6171 185.937 26.5685 185.918 26.5146C185.899 26.4609 185.893 26.4031 185.9 26.3467V12.9961C185.899 12.9455 185.908 12.8948 185.927 12.8476C185.945 12.8005 185.973 12.7569 186.008 12.7207C186.043 12.6844 186.086 12.6554 186.133 12.6357C186.18 12.6161 186.23 12.6064 186.28 12.6064H194.28Z" fill="black"/>
<path d="M180.29 12.6055C180.391 12.6069 180.487 12.6467 180.56 12.7158C180.63 12.7918 180.67 12.8923 180.67 12.9961V13.5762C180.67 13.6799 180.63 13.7795 180.56 13.8555C180.487 13.9247 180.391 13.9644 180.29 13.9658H173.49V18.8955H179.29C179.342 18.8941 179.393 18.9038 179.441 18.9228C179.488 18.9419 179.532 18.9705 179.568 19.0068C179.605 19.0432 179.634 19.0869 179.653 19.1348C179.672 19.1826 179.681 19.2346 179.68 19.2861V19.8662C179.681 19.9175 179.672 19.9689 179.653 20.0166C179.634 20.0645 179.605 20.1081 179.568 20.1445C179.532 20.1809 179.488 20.2094 179.441 20.2285C179.393 20.2475 179.342 20.2572 179.29 20.2558H173.49V25.4062H180.29C180.341 25.4066 180.391 25.4169 180.438 25.4375C180.484 25.458 180.525 25.4882 180.56 25.5254C180.595 25.5605 180.624 25.6031 180.643 25.6494C180.662 25.6957 180.671 25.7459 180.67 25.7959V26.3857C180.67 26.4864 180.63 26.583 180.559 26.6543C180.487 26.7255 180.391 26.7656 180.29 26.7656H172.29C172.186 26.7657 172.086 26.727 172.01 26.6562C171.971 26.6154 171.941 26.5661 171.922 26.5127C171.903 26.4593 171.896 26.4021 171.9 26.3457V12.9961C171.899 12.9446 171.908 12.8926 171.927 12.8447C171.946 12.797 171.974 12.7532 172.011 12.7168C172.047 12.6805 172.091 12.6519 172.139 12.6328C172.187 12.6137 172.239 12.6041 172.29 12.6055H180.29Z" fill="black"/>
<path d="M201 12.5664C201.065 12.565 201.13 12.5765 201.19 12.6006C201.249 12.6247 201.304 12.6614 201.35 12.707C201.395 12.7527 201.431 12.8073 201.455 12.8672C201.479 12.9272 201.492 12.992 201.49 13.0566V18.7764L207.8 12.7764C207.842 12.7141 207.899 12.6624 207.965 12.626C208.031 12.5896 208.105 12.5691 208.18 12.5664H209.24C209.3 12.572 209.358 12.593 209.408 12.6269C209.475 12.6723 209.525 12.7392 209.55 12.8164C209.579 12.8969 209.582 12.985 209.559 13.0674C209.535 13.1497 209.487 13.223 209.42 13.2764L203.03 19.2764L209.72 26.126C209.82 26.1959 209.83 26.3162 209.72 26.4961C209.695 26.5777 209.642 26.6489 209.571 26.6963C209.5 26.7435 209.415 26.7642 209.33 26.7558H208.33C208.262 26.763 208.192 26.7548 208.128 26.7305C208.064 26.7061 208.006 26.6667 207.96 26.6162L201.47 19.8359V26.2764C201.469 26.4034 201.419 26.5254 201.33 26.6162C201.236 26.7067 201.11 26.7566 200.98 26.7558H200.4C200.27 26.7566 200.144 26.7067 200.05 26.6162C199.999 26.5694 199.957 26.512 199.93 26.4482C199.902 26.3846 199.889 26.3154 199.89 26.2461V13.0566C199.888 12.992 199.901 12.9272 199.925 12.8672C199.949 12.8073 199.985 12.7527 200.03 12.707C200.076 12.6614 200.131 12.6247 200.191 12.6006C200.251 12.5765 200.315 12.565 200.38 12.5664H201Z" fill="black"/>
<path fill-rule="evenodd" clip-rule="evenodd" d="M88.626 12.6162C89.6528 12.6384 90.6421 13.0191 91.42 13.6963C91.8076 14.0237 92.1183 14.433 92.3292 14.8945C92.54 15.356 92.6469 15.8589 92.6407 16.3662C92.6378 17.0457 92.4123 17.706 92.0001 18.2461C91.622 18.7836 91.117 19.2195 90.5303 19.5156C90.8226 19.6138 91.1015 19.7486 91.3604 19.916C91.648 20.1091 91.916 20.3305 92.1602 20.5762C92.4331 20.8653 92.6471 21.2052 92.7901 21.5762C92.9382 21.9618 93.0096 22.3731 93.0001 22.7861C93.0102 23.3186 92.9033 23.847 92.6876 24.334C92.4717 24.821 92.1515 25.2552 91.7501 25.6055C90.8967 26.3591 89.7885 26.7597 88.6505 26.7256H83.8204C83.7703 26.7265 83.7203 26.7171 83.6739 26.6982C83.6276 26.6793 83.585 26.6518 83.5499 26.6162C83.4806 26.5433 83.4419 26.4463 83.4405 26.3457V12.9961C83.4419 12.8955 83.4806 12.7985 83.5499 12.7256C83.585 12.69 83.6276 12.6624 83.6739 12.6435C83.7203 12.6247 83.7703 12.6153 83.8204 12.6162H88.626ZM86.0801 24.2959H88.5098C88.9951 24.2959 89.4606 24.1028 89.8038 23.7598C90.1469 23.4166 90.3399 22.9511 90.3399 22.4658C90.3395 22.2229 90.2822 21.9835 90.1729 21.7666C90.0635 21.5496 89.9051 21.3607 89.71 21.2158C89.306 20.8883 88.8004 20.7114 88.2803 20.7158H86.0801V24.2959ZM86.0801 18.5156H88.2403C88.4722 18.5234 88.7031 18.4813 88.9171 18.3916C89.131 18.3018 89.3236 18.167 89.4805 17.9961C89.6478 17.8261 89.78 17.6245 89.8692 17.4033C89.9584 17.182 90.0027 16.9446 90.0001 16.706C90.0102 16.479 89.9733 16.2518 89.8907 16.04C89.808 15.8283 89.6819 15.6357 89.5206 15.4756C89.3521 15.3114 89.151 15.1842 88.9307 15.1015C88.7655 15.0396 88.5917 15.0045 88.4161 14.9961H86.0801V18.5156Z" fill="black"/>
<path d="M78.1505 12.6162C78.2019 12.6151 78.253 12.6247 78.3008 12.6435C78.3489 12.6624 78.3927 12.6906 78.4298 12.7265C78.499 12.7994 78.5386 12.8956 78.5401 12.9961V14.6562C78.5402 14.76 78.5005 14.8605 78.4298 14.9365C78.3928 14.9723 78.3487 15.0007 78.3008 15.0195C78.253 15.0383 78.2018 15.0469 78.1505 15.0459H72.1505V18.3857H77.1505C77.2509 18.3872 77.3472 18.4269 77.42 18.4961C77.4574 18.5304 77.4872 18.5727 77.5079 18.6191C77.5284 18.6654 77.5397 18.7159 77.5401 18.7666V20.4258C77.5412 20.4773 77.5316 20.5291 77.5128 20.5771C77.4939 20.6251 77.4656 20.669 77.4298 20.706C77.3539 20.7767 77.2542 20.8164 77.1505 20.8164H72.1505V24.2959H78.1505C78.2019 24.2948 78.253 24.3045 78.3008 24.3232C78.3488 24.3421 78.3927 24.3704 78.4298 24.4062C78.5005 24.4822 78.5402 24.5827 78.5401 24.6865V26.3457C78.5387 26.4463 78.499 26.5433 78.4298 26.6162C78.3928 26.652 78.3488 26.6804 78.3008 26.6992C78.253 26.718 78.2019 26.7276 78.1505 26.7265H69.92C69.8683 26.7282 69.8167 26.7191 69.7686 26.7002C69.7205 26.6813 69.6764 26.6526 69.6397 26.6162C69.5705 26.5433 69.5317 26.4462 69.5303 26.3457V12.9961C69.5318 12.8957 69.5707 12.7994 69.6397 12.7265C69.6764 12.6902 69.7206 12.6615 69.7686 12.6426C69.8167 12.6237 69.8684 12.6145 69.92 12.6162H78.1505Z" fill="black"/>
<path fill-rule="evenodd" clip-rule="evenodd" d="M128.941 12.3662C129.014 12.3639 129.086 12.3838 129.149 12.4228C129.211 12.4619 129.26 12.5188 129.29 12.5859L135.521 26.1963C135.535 26.2552 135.534 26.317 135.521 26.376C135.522 26.4441 135.5 26.5114 135.46 26.5664C135.424 26.62 135.375 26.6633 135.317 26.6914C135.259 26.7195 135.194 26.7319 135.13 26.7265H133.37C133.245 26.7364 133.121 26.7003 133.021 26.626C132.914 26.5465 132.831 26.4396 132.78 26.3164L131.78 24.0859H125.78L124.78 26.3164C124.743 26.4391 124.665 26.5459 124.561 26.6201C124.456 26.6943 124.329 26.7321 124.2 26.7265H122.44C122.377 26.7335 122.314 26.7217 122.257 26.6933C122.2 26.665 122.152 26.621 122.12 26.5664C122.081 26.5108 122.061 26.4439 122.061 26.376C122.063 26.313 122.08 26.2512 122.11 26.1963L128.4 12.5859C128.427 12.5188 128.474 12.4612 128.535 12.4219C128.596 12.3825 128.668 12.3631 128.74 12.3662H128.941ZM126.78 21.8965H130.851L128.851 17.4463H128.79L126.78 21.8965Z" fill="black"/>
<path fill-rule="evenodd" clip-rule="evenodd" d="M145.55 12.6162C146.127 12.606 146.701 12.7133 147.235 12.9316C147.77 13.1499 148.255 13.4744 148.66 13.8857C149.078 14.2727 149.412 14.7418 149.643 15.2627C149.873 15.7836 149.995 16.3464 150 16.916C150.01 17.8076 149.721 18.6769 149.18 19.3857C148.617 20.1151 147.863 20.6731 147 20.9961L149.79 26.1162C149.824 26.1754 149.842 26.2432 149.842 26.3115C149.842 26.3797 149.824 26.4468 149.79 26.5058C149.756 26.5675 149.705 26.6187 149.643 26.6523C149.581 26.6859 149.511 26.7012 149.441 26.6963H147.31C147.245 26.7012 147.18 26.6862 147.123 26.6543C147.066 26.6223 147.02 26.5747 146.99 26.5166L144.3 21.1865H142V26.3164C142.001 26.3648 141.993 26.4133 141.974 26.458C141.955 26.5028 141.926 26.5433 141.89 26.5762C141.855 26.6135 141.814 26.6434 141.768 26.664C141.721 26.6847 141.671 26.6959 141.62 26.6963H139.75C139.7 26.6972 139.65 26.6878 139.604 26.6689C139.557 26.65 139.516 26.6215 139.481 26.5859C139.415 26.5227 139.375 26.4367 139.37 26.3457V12.9961C139.369 12.946 139.378 12.896 139.397 12.8496C139.416 12.8032 139.444 12.7613 139.481 12.7265C139.516 12.691 139.557 12.6624 139.604 12.6435C139.65 12.6247 139.7 12.6153 139.75 12.6162H145.55ZM142 18.9961H145.29C145.555 18.9982 145.817 18.9449 146.06 18.8398C146.302 18.7348 146.521 18.5799 146.7 18.3857C146.894 18.1959 147.047 17.9686 147.15 17.7178C147.254 17.4669 147.304 17.197 147.3 16.9258C147.301 16.6668 147.249 16.4103 147.146 16.1728C147.042 15.9353 146.891 15.7214 146.7 15.5459C146.325 15.1741 145.818 14.9654 145.29 14.9658H142V18.9961Z" fill="black"/>
</svg>
