<svg display="block" width="100%" height="100%" viewBox="0 0 155 36" fill="none" xmlns="http://www.w3.org/2000/svg" class="st-current" data-label="svg">
<g clip-path="url(#clip0_254_3477)">
<path d="M33.5774 35.7056C33.0957 35.5531 32.6471 35.31 32.2537 34.994C32.2493 34.9896 32.2449 34.9874 32.2405 34.983C31.1975 34.1256 29.1645 28.7558 28.57 27.3769C28.1701 26.4533 27.7635 25.5318 27.3502 24.6169C27.3281 24.5661 27.3038 24.5153 27.2817 24.4645C26.1282 21.837 24.8289 19.2781 23.3903 16.7987C23.3903 16.7943 23.3859 16.7899 23.3837 16.7855C22.1882 14.8276 21.0966 13.5327 20.2988 13.5327C18.7586 13.5327 16.4649 17.1633 13.8485 22.1155C13.8242 22.1597 13.8021 22.2039 13.7778 22.248C13.7778 22.2503 13.7778 22.2547 13.7734 22.2591C13.7712 22.2635 13.7689 22.2679 13.7645 22.2724C10.9913 27.5581 8.39256 34.1433 8.65773 35.2239C8.65773 35.2681 8.6975 35.3255 8.62679 35.3719C8.61353 35.3763 8.60248 35.3786 8.59365 35.3808L8.57597 35.3874L8.41907 35.4316C7.70752 35.6658 6.97609 35.8293 6.23581 35.9222C5.09557 35.9862 3.95532 35.8625 2.85485 35.562C0.18323 34.6272 -0.378053 32.4484 0.18323 29.8541C1.13343 25.355 10.6841 10.207 13.7888 5.44489C15.2738 3.15998 17.2383 0 20.3187 0C22.9881 0 24.7736 2.52578 26.263 4.48364C27.1668 5.67471 29.4783 9.35841 31.6991 13.051C31.7057 13.062 31.7123 13.0708 31.719 13.0819C32.7752 14.8387 33.8116 16.5976 34.6668 18.087C35.1176 18.8781 35.5596 19.6692 35.975 20.4846C35.975 20.4869 35.9772 20.4869 35.9772 20.4891C36.9142 22.2525 37.7163 24.0866 38.3792 25.9693C38.5406 26.4201 38.6886 26.8731 38.8256 27.3305C39.2035 28.5923 39.4886 29.8784 39.6808 31.1822C40.1581 34.6051 36.5562 36.1255 33.5774 35.7056Z" fill="url(#paint0_linear_254_3477)" class=""/>
<path d="M37.0775 22.7395C36.05 22.6732 31.8558 23.3804 27.7677 25.5437C27.6086 25.1835 27.4473 24.8234 27.2838 24.4632C26.1281 21.8335 24.8265 19.2702 23.3858 16.7864C23.2996 16.6428 23.2112 16.5013 23.125 16.3687C25.5469 14.5656 27.9976 12.7403 30.6957 11.3945C31.0272 11.9381 31.3631 12.4972 31.6967 13.0497C32.7574 14.8197 33.8026 16.5875 34.6645 18.0879C35.1153 18.8746 35.555 19.6702 35.9727 20.4833C36.3638 21.228 36.7306 21.9794 37.0775 22.7395Z" fill="#0000C9"/>
<path d="M33.5797 35.7046C33.0936 35.5499 32.6406 35.3046 32.245 34.9842C31.7213 34.5533 30.9501 32.9954 30.2363 31.369C33.9112 29.9879 36.8878 25.5706 37.6678 24.1055C37.9219 24.7242 38.1584 25.3407 38.3794 25.9683C38.9804 27.661 39.418 29.4067 39.6809 31.1834C40.1627 34.6041 36.5629 36.1267 33.5819 35.7068L33.5797 35.7046Z" fill="#0000C9"/>
<path d="M46.7853 24.0674C46.4516 27.877 44.4054 32.2789 41.8023 34.1307C39.1992 35.9825 37.1551 36.0333 35.3232 35.9935H35.0934C34.5763 35.9714 34.0658 35.8764 33.5775 35.7107C33.0913 35.556 32.6383 35.3107 32.2406 34.9903C32.245 34.9903 32.2494 34.9925 32.2538 34.9925C34.2537 35.3417 37.5175 30.7144 38.8257 27.329C39.0003 26.8738 39.1417 26.4429 39.2389 26.0495C39.6234 24.4916 40.3615 21.6057 38.5141 20.6356C37.7363 20.2268 36.8281 20.2842 35.9773 20.4875C35.648 20.5671 35.3254 20.6687 35.0227 20.7726C32.3245 21.7007 29.8142 23.1326 27.3503 24.6154C26.1018 25.3667 24.8665 26.1291 23.6224 26.8451C20.6481 28.5598 17.6825 30.2967 14.7082 32.0159C14.3635 32.2192 14.0165 32.4203 13.6696 32.6192C13.4221 32.7628 13.1724 32.9043 12.9249 33.0457C12.6442 33.207 12.3724 33.3617 12.1139 33.5097C12.0277 33.5584 11.9415 33.607 11.8576 33.6556C11.7581 33.7108 11.6631 33.7661 11.5681 33.8213C11.4244 33.9009 11.2786 33.9826 11.135 34.0644C10.9052 34.1926 10.6886 34.3141 10.4853 34.4268C10.3859 34.482 10.2842 34.5373 10.1826 34.5925C10.1693 34.5992 10.1582 34.6058 10.1472 34.6124C9.36494 35.0389 8.83017 35.3107 8.62687 35.3704C8.61361 35.3748 8.60256 35.377 8.59372 35.3792L8.57604 35.3858H8.55837C7.83135 35.377 7.90869 34.3296 8.41915 32.8092C8.93624 31.269 9.89749 29.2382 10.9052 27.3069C11.0245 27.0771 11.146 26.8473 11.2676 26.6197C11.3095 26.5445 11.3493 26.4672 11.3913 26.3898C11.4974 26.191 11.6057 25.9943 11.7117 25.802C12.4896 24.3811 13.2343 23.1127 13.7646 22.2708C13.7646 22.2708 13.769 22.262 13.7734 22.2576C13.7955 22.2178 13.8198 22.1802 13.8442 22.1426C14.0143 22.0277 14.295 21.8576 14.664 21.6454C16.4451 20.6179 20.2724 18.5827 23.3793 16.8038C23.3838 16.8016 23.386 16.7994 23.3904 16.7972C23.8876 16.5121 24.3561 16.247 24.7892 16.0193C26.9216 14.8703 29.2883 13.8007 31.7191 13.0803C33.2792 12.6163 34.868 12.2981 36.4347 12.1942C39.3715 11.9998 42.2531 12.877 44.2441 15.1111C46.4074 17.5154 47.0615 20.9803 46.7853 24.0674Z" fill="url(#paint1_linear_254_3477)" class=""/>
<path d="M14.7082 32.0168C14.0806 32.3793 13.484 32.724 12.9249 33.0466C12.6443 33.2079 12.3725 33.3626 12.1139 33.5107C12.0278 33.5593 11.9416 33.6079 11.8576 33.6565C11.7582 33.7117 11.6631 33.767 11.5681 33.8222C11.4201 33.904 11.2742 33.9858 11.135 34.0653C10.9052 34.1935 10.6886 34.315 10.4853 34.4277C10.3859 34.483 10.2842 34.5382 10.1826 34.5935C10.1693 34.6001 10.1583 34.6067 10.1472 34.6133C9.36498 35.0398 8.83021 35.3116 8.62691 35.3713C8.61365 35.3757 8.6026 35.3779 8.59376 35.3801C8.58051 35.3823 8.56946 35.3846 8.56062 35.3846C7.8336 35.3757 7.91094 34.3305 8.41919 32.8102C8.93628 31.2699 9.89753 29.2392 10.9052 27.3078C11.0245 27.078 11.1461 26.8482 11.2676 26.6206C11.3096 26.5454 11.3494 26.4681 11.3913 26.3908C11.4974 26.1919 11.6057 25.9952 11.7118 25.803C12.4896 24.3821 13.2343 23.1137 13.7646 22.2717C13.7646 22.2717 13.7735 22.2563 13.7779 22.2474C13.8 22.2121 13.8221 22.1767 13.8442 22.1436C14.0143 22.0287 14.295 21.8585 14.664 21.6464C14.748 21.6 14.8364 21.5491 14.9292 21.4961C14.4784 23.5026 12.4366 30.0811 14.7082 32.0168Z" fill="#0000C9" class=""/>
<path d="M51.7063 17.2175C51.7063 12.3982 55.0009 8.96875 59.3717 8.96875C61.8377 8.96875 63.5104 9.91228 64.5533 11.2204L64.6351 9.3002H68.7915V25.1966H64.6351L64.5533 23.2764C63.5082 24.6 61.8399 25.528 59.3717 25.528C55.0009 25.528 51.7063 22.0323 51.7063 17.2153V17.2175ZM60.2003 12.7628C57.6569 12.7628 55.929 14.683 55.929 17.2175C55.929 19.752 57.6503 21.7539 60.2003 21.7539C62.7502 21.7539 64.5379 19.7674 64.5379 17.2175C64.5379 14.6675 62.7326 12.7628 60.2003 12.7628Z" fill="currentColor" class=""/>
<path d="M83.6516 11.2204L83.7333 9.3002H87.8234V31.8212H83.5676V23.5239C82.5092 24.7326 80.737 25.528 78.4014 25.528C73.8981 25.528 70.7029 22.1163 70.7029 17.3147C70.7029 12.5131 73.8981 8.96875 78.4014 8.96875C80.9513 8.96875 82.5909 9.89681 83.6494 11.2204H83.6516ZM79.2808 12.776C76.7375 12.776 74.9742 14.7316 74.9742 17.297C74.9742 19.8624 76.7463 21.7186 79.2808 21.7186C81.8153 21.7186 83.6007 19.8138 83.6007 17.297C83.6007 14.7802 81.7756 12.776 79.2808 12.776Z" fill="currentColor" class=""/>
<path d="M101.159 9.30078H105.397V18.6565C105.397 22.6804 102.367 25.5286 97.8796 25.5286C93.3918 25.5286 90.4463 22.7135 90.4463 18.756V9.30078H94.7021V18.2257C94.7021 20.2475 96.0102 21.6175 97.8796 21.6175C99.8507 21.6175 101.159 20.2431 101.159 18.2257V9.30078Z" fill="currentColor"/>
<path d="M107.109 17.2175C107.109 12.3982 110.404 8.96875 114.775 8.96875C117.241 8.96875 118.913 9.91228 119.956 11.2204L120.04 9.3002H124.195V25.1966H120.04L119.956 23.2764C118.913 24.6 117.243 25.528 114.775 25.528C110.404 25.528 107.109 22.0323 107.109 17.2153V17.2175ZM115.601 12.7628C113.058 12.7628 111.33 14.683 111.33 17.2175C111.33 19.752 113.053 21.7539 115.601 21.7539C118.149 21.7539 119.939 19.7674 119.939 17.2175C119.939 14.6675 118.136 12.7628 115.601 12.7628Z" fill="currentColor"/>
<path d="M142.254 15.2155V25.201H138.001V16.3071C138.001 14.1018 136.578 12.9152 134.722 12.9152C132.865 12.9152 131.195 14.1018 131.195 16.3071V25.201H126.957V9.3002H130.996L131.08 11.1386C131.906 10.0272 133.612 8.96875 135.979 8.96875C139.654 8.97317 142.254 11.3906 142.254 15.2155Z" fill="currentColor"/>
<path d="M150.021 12.8302V19.3708C150.021 21.0281 150.947 21.7551 152.37 21.7551C153.159 21.7396 153.948 21.6777 154.73 21.5628L154.743 25.1779C154.107 25.3635 153.453 25.4762 152.792 25.5159C151.385 25.5646 149.931 25.5402 148.627 24.9525C147.677 24.5326 146.897 23.8034 146.413 22.8864C145.973 21.9827 145.757 20.9861 145.783 19.9807V12.828H143.101V9.29915H145.799V4.19922H149.926V9.29915H153.681V12.8258L150.021 12.8302Z" fill="currentColor"/>
</g>
<defs>
<linearGradient id="paint0_linear_254_3477" x1="-17.9436" y1="35.4006" x2="32.8747" y2="15.8949" gradientUnits="userSpaceOnUse">
<stop offset="0.27" stop-color="#266CFF"/>
<stop offset="0.98" stop-color="#001EFF"/>
</linearGradient>
<linearGradient id="paint1_linear_254_3477" x1="0.934632" y1="22.1802" x2="38.4301" y2="24.8828" gradientUnits="userSpaceOnUse">
<stop stop-color="#001EFF"/>
<stop offset="1" stop-color="#266CFF"/>
</linearGradient>
<clipPath id="clip0_254_3477">
<rect width="154.743" height="36" fill="white"/>
</clipPath>
</defs>
</svg>