<svg width="109" height="86" viewBox="0 0 109 86" fill="none" xmlns="http://www.w3.org/2000/svg">
<path d="M94.8429 47.7105H94.9212L100.03 32.6553H104.672L96.832 53.9121C96.468 54.8221 96.1042 55.6933 95.7401 56.5254C95.4021 57.3574 94.9729 58.0856 94.4528 58.7096C93.9588 59.3595 93.3349 59.8666 92.5809 60.2306C91.8269 60.6206 90.8646 60.8155 89.6946 60.8155C88.6545 60.8155 87.6273 60.7378 86.6133 60.5818V56.8373C86.9772 56.8893 87.3283 56.9415 87.6662 56.9935C88.0042 57.0715 88.3555 57.1103 88.7195 57.1103C89.2395 57.1103 89.6685 57.0452 90.0065 56.9152C90.3445 56.7853 90.6175 56.5903 90.8255 56.3303C91.0595 56.0963 91.2547 55.8101 91.4107 55.4721C91.5667 55.1342 91.7095 54.7442 91.8395 54.3023L92.3468 52.742L84.7021 32.6553H89.5774L94.8429 47.7105Z" fill="white"/>
<path fill-rule="evenodd" clip-rule="evenodd" d="M47.828 52.8195H43.6154V50.0894H43.5375C42.9395 51.2595 42.0684 52.1043 40.9243 52.6245C39.7802 53.1185 38.5711 53.3658 37.297 53.3658C35.7108 53.3658 34.3198 53.0926 33.1237 52.5466C31.9537 51.9745 30.9786 51.2076 30.1985 50.2455C29.4184 49.2835 28.8331 48.1523 28.4431 46.8523C28.0531 45.5261 27.8582 44.1089 27.8582 42.6008C27.8582 40.7806 28.1052 39.2073 28.5992 37.8812C29.0932 36.5551 29.7434 35.4632 30.5493 34.6051C31.3814 33.747 32.3176 33.1229 33.3577 32.7328C34.4237 32.3168 35.5028 32.109 36.5949 32.109C37.2189 32.109 37.856 32.1737 38.5061 32.3037C39.1562 32.4077 39.7803 32.59 40.3783 32.85C40.9763 33.11 41.5225 33.448 42.0165 33.8641C42.5365 34.2541 42.9655 34.7222 43.3035 35.2682H43.3814V24.9712H47.828V52.8195ZM37.9601 35.6191C36.92 35.6191 36.0359 35.8402 35.3079 36.2823C34.6057 36.6983 34.0208 37.2574 33.5528 37.9594C33.1108 38.6354 32.7857 39.4154 32.5777 40.2994C32.3957 41.1575 32.3044 42.0416 32.3044 42.9516C32.3044 43.8097 32.4087 44.6549 32.6167 45.487C32.8507 46.3191 33.1887 47.0601 33.6307 47.7102C34.0987 48.3603 34.6836 48.8805 35.3858 49.2705C36.0878 49.6605 36.9201 49.8554 37.8822 49.8554C38.8702 49.8554 39.7152 49.6473 40.4172 49.2312C41.1452 48.8152 41.7303 48.2693 42.1723 47.5933C42.6403 46.9172 42.9787 46.163 43.1867 45.3309C43.4206 44.4729 43.5375 43.6019 43.5375 42.7179C43.5375 40.4817 43.0306 38.7395 42.0165 37.4914C41.0284 36.2432 39.6762 35.6191 37.9601 35.6191Z" fill="white"/>
<path fill-rule="evenodd" clip-rule="evenodd" d="M59.9315 32.109C60.9196 32.109 61.8947 32.2129 62.8567 32.4209C63.8188 32.6289 64.6769 32.9669 65.431 33.4349C66.2111 33.903 66.8352 34.5142 67.3033 35.2682C67.7713 35.9963 68.005 36.8934 68.005 37.9594V48.3343C68.005 48.8803 68.07 49.2705 68.2001 49.5045C68.3561 49.7385 68.6423 49.8554 69.0583 49.8554H69.5264C69.7083 49.8554 69.9163 49.8295 70.1503 49.7775V52.8588C69.9943 52.9108 69.7863 52.963 69.5264 53.015C69.2924 53.0929 69.0453 53.1577 68.7854 53.2097C68.5254 53.2617 68.265 53.3009 68.005 53.3269C67.7452 53.3529 67.5242 53.3658 67.3422 53.3658C66.4322 53.3658 65.6778 53.184 65.0798 52.8199C64.4818 52.4559 64.0917 51.8187 63.9097 50.9087C63.0257 51.7667 61.9336 52.3909 60.6336 52.7809C59.3595 53.1709 58.1244 53.3658 56.9284 53.3658C56.0184 53.3658 55.1472 53.2358 54.3151 52.9757C53.4831 52.7417 52.7419 52.3908 52.0919 51.9227C51.4678 51.4287 50.9607 50.8174 50.5706 50.0894C50.2066 49.3355 50.0246 48.4645 50.0246 47.4764C50.0246 46.2283 50.2457 45.2142 50.6878 44.4341C51.1558 43.654 51.7537 43.0428 52.4818 42.6008C53.2358 42.1588 54.0679 41.847 54.9779 41.665C55.914 41.4569 56.8501 41.3006 57.7862 41.1966C58.5923 41.0406 59.3596 40.9366 60.0876 40.8846C60.8157 40.8066 61.4528 40.6899 61.9988 40.5338C62.5707 40.3778 63.0127 40.1436 63.3248 39.8317C63.6627 39.4937 63.8317 38.9997 63.8318 38.3496C63.8318 37.7776 63.689 37.3094 63.403 36.9454C63.1429 36.5813 62.8046 36.3085 62.3886 36.1265C61.9987 35.9185 61.5567 35.7883 61.0627 35.7363C60.5687 35.6583 60.1005 35.6194 59.6585 35.6194C58.4104 35.6194 57.3832 35.8794 56.5771 36.3994C55.7711 36.9196 55.3159 37.7256 55.2119 38.8176H50.7657C50.8437 37.5175 51.1557 36.4383 51.7018 35.5802C52.2478 34.7221 52.9371 34.0332 53.7691 33.5132C54.6272 32.9932 55.5893 32.6289 56.6554 32.4209C57.7214 32.2129 58.8135 32.109 59.9315 32.109ZM63.5588 42.7179C62.8827 43.1599 62.0507 43.4328 61.0627 43.5369C60.0746 43.6149 59.0862 43.745 58.0982 43.927C57.6302 44.005 57.1752 44.1219 56.7333 44.2779C56.2912 44.4079 55.9011 44.6032 55.5631 44.8632C55.2251 45.0972 54.9522 45.4222 54.7442 45.8382C54.5622 46.2282 54.4709 46.7094 54.4709 47.2814C54.4709 47.7754 54.614 48.1914 54.9 48.5294C55.1859 48.8674 55.524 49.1404 55.914 49.3484C56.33 49.5304 56.7723 49.6605 57.2403 49.7385C57.7343 49.8165 58.1763 49.8554 58.5662 49.8554C59.0603 49.8554 59.5935 49.7906 60.1655 49.6606C60.7376 49.5306 61.2707 49.3096 61.7648 48.9975C62.2848 48.6855 62.7138 48.2953 63.0518 47.8273C63.3898 47.3333 63.5588 46.7353 63.5588 46.0333V42.7179Z" fill="white"/>
<path d="M23.9304 32.7132L13.7977 53.0824H0V45.3244L10.1379 24.9519H23.9304V32.7132Z" fill="white"/>
<path d="M75.7932 52.8195H71.3469V32.6549H75.7932V52.8195Z" fill="white"/>
<path d="M83.6409 52.8195H79.1943V24.9712H83.6409V52.8195Z" fill="white"/>
<path d="M107.282 33.2343H106.858V34.3874H106.58V33.2343H106.157V32.9963H107.282V33.2343Z" fill="white"/>
<path d="M107.86 32.9963L108.263 33.9829L108.664 32.9963H109V34.3874H108.722V33.4899L108.338 34.3874H108.187L107.802 33.4899V34.3874H107.524V32.9963H107.86Z" fill="white"/>
<path d="M75.7932 29.1834H71.3469V24.9712H75.7932V29.1834Z" fill="white"/>
</svg>
