<svg width="126" height="28" viewBox="0 0 126 28" fill="none" xmlns="http://www.w3.org/2000/svg">
<path d="M111.648 0C119.168 0.000118707 125.264 6.26807 125.264 14C125.264 21.7319 119.168 27.9999 111.648 28C104.129 28 98.0322 21.732 98.0322 14C98.0322 6.268 104.129 0 111.648 0Z" fill="white"/>
<path fill-rule="evenodd" clip-rule="evenodd" d="M21.4434 8.51172C23.0824 8.51179 24.5061 8.90181 25.7139 9.68262C26.9433 10.4411 27.8811 11.5014 28.5283 12.8623C29.1968 14.2232 29.5312 15.7736 29.5312 17.5137C29.5312 17.8929 29.4128 18.2049 29.1758 18.4502C28.9385 18.6733 28.6361 18.7852 28.2695 18.7852H15.4434C15.5467 19.7271 15.8102 20.5864 16.2344 21.3623C16.7951 22.3884 17.5608 23.1915 18.5312 23.7715C19.5233 24.3515 20.6554 24.6415 21.9277 24.6416C22.6611 24.6416 23.4062 24.5079 24.1611 24.2402C24.9374 23.9726 25.5521 23.6378 26.0049 23.2363C26.2637 23.0355 26.5553 22.9346 26.8789 22.9346C27.2237 22.9124 27.504 23.0023 27.7197 23.2031C28.0431 23.493 28.2051 23.8051 28.2051 24.1396C28.2267 24.4743 28.086 24.7643 27.7842 25.0098C27.0724 25.6343 26.1663 26.1473 25.0664 26.5488C23.9664 26.9504 22.9199 27.1514 21.9277 27.1514C20.1594 27.1513 18.5959 26.7611 17.2373 25.9805C15.8784 25.1773 14.8107 24.0725 14.0342 22.667C13.2577 21.2616 12.8692 19.6556 12.8691 17.8486C12.8691 16.0194 13.2354 14.4125 13.9688 13.0293C14.7021 11.6238 15.7059 10.5199 16.9785 9.7168C18.2727 8.91366 19.7611 8.51172 21.4434 8.51172ZM21.4434 11.0215C20.2142 11.0215 19.1353 11.3116 18.208 11.8916C17.3021 12.4716 16.6005 13.2865 16.1045 14.335C15.8017 14.9897 15.5968 15.7037 15.4873 16.4766H27C26.9197 15.6433 26.7194 14.8732 26.3936 14.167C25.9406 13.1855 25.2932 12.4161 24.4521 11.8584C23.6111 11.3007 22.608 11.0216 21.4434 11.0215Z" fill="white"/>
<path d="M40.7803 8.51172C42.0742 8.51173 43.2713 8.77913 44.3711 9.31445C45.471 9.82753 46.442 10.6087 47.2832 11.6572C47.5421 11.9695 47.6283 12.2932 47.542 12.6279C47.4773 12.9402 47.2834 13.2194 46.96 13.4648C46.7012 13.6432 46.4094 13.7096 46.0859 13.665C45.7842 13.598 45.5039 13.4197 45.2451 13.1299C44.0589 11.7467 42.5705 11.0547 40.7803 11.0547C39.594 11.0547 38.5476 11.3448 37.6416 11.9248C36.7574 12.5048 36.0674 13.3088 35.5713 14.335C35.0754 15.3389 34.8271 16.5102 34.8271 17.8486C34.8272 19.1422 35.0861 20.3021 35.6035 21.3281C36.1429 22.332 36.8762 23.136 37.8037 23.7383C38.7528 24.3184 39.8315 24.6084 41.0391 24.6084C41.8587 24.6084 42.5922 24.4965 43.2393 24.2734C43.9079 24.0506 44.5009 23.7047 45.0186 23.2363C45.3206 22.9908 45.6229 22.8572 45.9248 22.835C46.2267 22.8128 46.5069 22.9018 46.7656 23.1025C47.046 23.3703 47.208 23.6713 47.251 24.0059C47.2941 24.3404 47.1864 24.6416 46.9277 24.9092C45.3532 26.4039 43.3902 27.1514 41.0391 27.1514C39.3352 27.1514 37.8148 26.7493 36.4775 25.9463C35.1405 25.121 34.0831 24.0059 33.3066 22.6006C32.5519 21.1952 32.1739 19.6109 32.1738 17.8486C32.1738 16.0638 32.5411 14.468 33.2744 13.0625C34.0294 11.6572 35.043 10.5531 36.3154 9.75C37.6095 8.9245 39.0978 8.51172 40.7803 8.51172Z" fill="white"/>
<path fill-rule="evenodd" clip-rule="evenodd" d="M60.4727 8.51172C62.1557 8.51172 63.6659 8.9245 65.0029 9.75C66.3619 10.5533 67.4301 11.658 68.2061 13.0635C69.0039 14.4689 69.4136 16.064 69.4355 17.8486V25.5781C69.4355 26.002 69.3059 26.3484 69.0469 26.6162C68.7879 26.8616 68.4538 26.9844 68.0439 26.9844C67.656 26.9844 67.322 26.8616 67.041 26.6162C66.782 26.3484 66.6533 26.002 66.6533 25.5781V23.8018C66.1953 24.5163 64.888 25.5744 64.291 26.0137C63.062 26.772 61.6599 27.1514 60.085 27.1514C58.446 27.1514 56.9786 26.7495 55.6846 25.9463C54.3909 25.1211 53.3662 24.0057 52.6113 22.6006C51.8574 21.1952 51.4795 19.6107 51.4795 17.8486C51.4795 16.0641 51.8668 14.4688 52.6436 13.0635C53.4415 11.658 54.52 10.5533 55.8789 9.75C57.2378 8.92456 58.7688 8.51178 60.4727 8.51172ZM60.4727 11.0303C59.2869 11.0303 58.2091 11.3315 57.2383 11.9336C56.2893 12.5362 55.5337 13.3508 54.9727 14.377C54.4128 15.3807 54.1319 16.5296 54.1318 17.8232C54.1318 19.0949 54.4127 20.2443 54.9727 21.2705C55.5337 22.2968 56.2893 23.1106 57.2383 23.7129C58.2092 24.2931 59.2868 24.583 60.4727 24.583C61.6806 24.583 62.7488 24.2932 63.6758 23.7129C64.6257 23.1106 65.3702 22.2967 65.9092 21.2705C66.4702 20.2443 66.75 19.0949 66.75 17.8232C66.75 16.5296 66.47 15.3807 65.9092 14.377C65.3702 13.3508 64.6258 12.5362 63.6758 11.9336C62.7488 11.3315 61.6806 11.0303 60.4727 11.0303Z" fill="white"/>
<path d="M8.18555 8.47852C9.28555 8.47852 10.1161 8.64577 10.6768 8.98047C11.2591 9.31507 11.4752 9.77245 11.3242 10.3525C11.2595 10.6647 11.119 10.8877 10.9033 11.0215C10.7092 11.1554 10.4718 11.2227 10.1914 11.2227C9.93263 11.2227 9.63031 11.2 9.28516 11.1553C8.01287 10.9992 6.88068 11.0884 5.88867 11.4229C4.91807 11.7353 4.14099 12.2598 3.55859 12.9961C3.04917 13.6402 2.7629 14.3955 2.69922 15.2617L2.68555 15.6396V25.5781C2.68555 26.0243 2.5663 26.3708 2.3291 26.6162C2.11348 26.8614 1.79025 26.9843 1.35938 26.9844C0.927975 26.9844 0.592669 26.8617 0.355469 26.6162C0.118234 26.3708 0 26.0243 0 25.5781V10.085C0 9.63872 0.118236 9.29237 0.355469 9.04688C0.592669 8.80147 0.927975 8.67871 1.35938 8.67871C1.79025 8.6788 2.11348 8.80178 2.3291 9.04688C2.5663 9.29237 2.68555 9.63866 2.68555 10.085V11.2656C3.2511 10.5114 3.92991 9.8939 4.72363 9.41504C5.7805 8.79037 6.93449 8.47852 8.18555 8.47852Z" fill="white"/>
<path d="M74.9932 0.848633C75.382 0.848671 75.6937 0.982353 75.9316 1.25C76.1906 1.4954 76.3203 1.83001 76.3203 2.25391V21.0605C76.3203 21.9753 76.4919 22.7345 76.8379 23.3369C77.2038 23.9167 77.6678 24.2069 78.2285 24.207H79.0381C79.383 24.2071 79.6629 24.3407 79.8789 24.6084C80.0947 24.8537 80.2021 25.1768 80.2021 25.5781C80.2021 26.0019 80.0408 26.3484 79.7168 26.6162C79.4148 26.8616 79.0154 26.9844 78.5195 26.9844H78.2285C77.3227 26.9843 76.5248 26.7386 75.835 26.248C75.144 25.7348 74.6048 25.032 74.2168 24.1396C73.8288 23.2474 73.6348 22.2206 73.6348 21.0605V2.25391C73.6348 1.83001 73.7532 1.4954 73.9902 1.25C74.2492 0.982275 74.5832 0.848633 74.9932 0.848633Z" fill="white"/>
<path d="M84.3145 0.848633C84.7022 0.848738 85.015 0.982326 85.2529 1.25C85.5109 1.4954 85.6406 1.83001 85.6406 2.25391V21.0605C85.6406 21.9753 85.8132 22.7345 86.1582 23.3369C86.5251 23.9167 86.989 24.207 87.5488 24.207H88.3594C88.7032 24.2071 88.9843 24.3408 89.1992 24.6084C89.416 24.8537 89.5234 25.1769 89.5234 25.5781C89.5234 26.0019 89.3611 26.3484 89.0381 26.6162C88.7361 26.8617 88.3368 26.9844 87.8398 26.9844H87.5488C86.644 26.9843 85.8462 26.7386 85.1562 26.248C84.4653 25.7349 83.9261 25.032 83.5381 24.1396C83.1491 23.2473 82.9551 22.2206 82.9551 21.0605V2.25391C82.9551 1.83014 83.0737 1.49538 83.3105 1.25C83.5695 0.9822 83.9044 0.848633 84.3145 0.848633Z" fill="white"/>
</svg>
