<svg width="126" height="86" viewBox="0 0 126 86" fill="none" xmlns="http://www.w3.org/2000/svg">
<path d="M111.78 26C119.3 26.0001 125.396 32.2681 125.396 40C125.396 47.7319 119.3 53.9999 111.78 54C104.261 54 98.1641 47.732 98.1641 40C98.1641 32.268 104.261 26 111.78 26Z" fill="white"/>
<path fill-rule="evenodd" clip-rule="evenodd" d="M21.5752 34.5117C23.2143 34.5118 24.6379 34.9018 25.8457 35.6826C27.0751 36.4411 28.013 37.5014 28.6602 38.8623C29.3286 40.2232 29.6631 41.7736 29.6631 43.5137C29.6631 43.8929 29.5446 44.2049 29.3076 44.4502C29.0703 44.6733 28.768 44.7852 28.4014 44.7852H15.5752C15.6786 45.727 15.9421 46.5864 16.3662 47.3623C16.9269 48.3884 17.6926 49.1915 18.6631 49.7715C19.6551 50.3515 20.7872 50.6415 22.0596 50.6416C22.793 50.6416 23.5381 50.5079 24.293 50.2402C25.0692 49.9726 25.6839 49.6378 26.1367 49.2363C26.3955 49.0355 26.6871 48.9346 27.0107 48.9346C27.3555 48.9124 27.6359 49.0023 27.8516 49.2031C28.175 49.493 28.3369 49.8051 28.3369 50.1396C28.3585 50.4743 28.2178 50.7643 27.916 51.0098C27.2042 51.6343 26.2982 52.1473 25.1982 52.5488C24.0983 52.9504 23.0517 53.1514 22.0596 53.1514C20.2912 53.1513 18.7277 52.7611 17.3691 51.9805C16.0102 51.1773 14.9425 50.0725 14.166 48.667C13.3896 47.2616 13.001 45.6556 13.001 43.8486C13.001 42.0194 13.3672 40.4125 14.1006 39.0293C14.8339 37.6238 15.8378 36.5199 17.1104 35.7168C18.4045 34.9137 19.893 34.5117 21.5752 34.5117ZM21.5752 37.0215C20.346 37.0215 19.2672 37.3116 18.3398 37.8916C17.4339 38.4716 16.7323 39.2865 16.2363 40.335C15.9336 40.9897 15.7286 41.7037 15.6191 42.4766H27.1318C27.0516 41.6433 26.8512 40.8732 26.5254 40.167C26.0724 39.1855 25.425 38.4161 24.584 37.8584C23.7429 37.3007 22.7398 37.0216 21.5752 37.0215Z" fill="white"/>
<path d="M40.9121 34.5117C42.206 34.5117 43.4031 34.7791 44.5029 35.3145C45.6029 35.8275 46.5739 36.6087 47.415 37.6572C47.6739 37.9695 47.7601 38.2932 47.6738 38.6279C47.6091 38.9402 47.4153 39.2194 47.0918 39.4648C46.833 39.6432 46.5412 39.7096 46.2178 39.665C45.916 39.598 45.6357 39.4197 45.377 39.1299C44.1908 37.7467 42.7024 37.0547 40.9121 37.0547C39.7258 37.0547 38.6794 37.3448 37.7734 37.9248C36.8892 38.5048 36.1992 39.3088 35.7031 40.335C35.2072 41.3389 34.959 42.5102 34.959 43.8486C34.959 45.1422 35.2179 46.3021 35.7354 47.3281C36.2748 48.332 37.008 49.136 37.9355 49.7383C38.8846 50.3184 39.9633 50.6084 41.1709 50.6084C41.9906 50.6084 42.724 50.4965 43.3711 50.2734C44.0398 50.0506 44.6328 49.7047 45.1504 49.2363C45.4524 48.9908 45.7547 48.8572 46.0566 48.835C46.3585 48.8128 46.6387 48.9018 46.8975 49.1025C47.1779 49.3703 47.3398 49.6713 47.3828 50.0059C47.4259 50.3404 47.3183 50.6416 47.0596 50.9092C45.4851 52.4039 43.5221 53.1514 41.1709 53.1514C39.4671 53.1514 37.9466 52.7493 36.6094 51.9463C35.2723 51.121 34.215 50.0059 33.4385 48.6006C32.6837 47.1952 32.3057 45.6109 32.3057 43.8486C32.3057 42.0638 32.673 40.468 33.4062 39.0625C34.1612 37.6572 35.1748 36.5531 36.4473 35.75C37.7414 34.9245 39.2296 34.5117 40.9121 34.5117Z" fill="white"/>
<path fill-rule="evenodd" clip-rule="evenodd" d="M60.6045 34.5117C62.2875 34.5117 63.7978 34.9245 65.1348 35.75C66.4938 36.5533 67.5619 37.658 68.3379 39.0635C69.1358 40.4689 69.5454 42.064 69.5674 43.8486V51.5781C69.5674 52.002 69.4377 52.3484 69.1787 52.6162C68.9197 52.8616 68.5857 52.9844 68.1758 52.9844C67.7879 52.9844 67.4538 52.8616 67.1729 52.6162C66.9139 52.3484 66.7852 52.002 66.7852 51.5781V49.8018C66.3272 50.5163 65.0199 51.5744 64.4229 52.0137C63.1939 52.772 61.7918 53.1514 60.2168 53.1514C58.5778 53.1514 57.1104 52.7495 55.8164 51.9463C54.5228 51.1211 53.498 50.0057 52.7432 48.6006C51.9892 47.1952 51.6114 45.6107 51.6113 43.8486C51.6113 42.0641 51.9986 40.4688 52.7754 39.0635C53.5734 37.658 54.6518 36.5533 56.0107 35.75C57.3696 34.9246 58.9006 34.5118 60.6045 34.5117ZM60.6045 37.0303C59.4187 37.0303 58.341 37.3315 57.3701 37.9336C56.4211 38.5362 55.6655 39.3508 55.1045 40.377C54.5447 41.3807 54.2637 42.5296 54.2637 43.8232C54.2637 45.0949 54.5445 46.2443 55.1045 47.2705C55.6655 48.2968 56.4211 49.1106 57.3701 49.7129C58.341 50.2931 59.4187 50.583 60.6045 50.583C61.8125 50.583 62.8806 50.2932 63.8076 49.7129C64.7576 49.1106 65.502 48.2967 66.041 47.2705C66.602 46.2443 66.8818 45.0949 66.8818 43.8232C66.8818 42.5296 66.6019 41.3807 66.041 40.377C65.502 39.3508 64.7576 38.5362 63.8076 37.9336C62.8807 37.3315 61.8124 37.0303 60.6045 37.0303Z" fill="white"/>
<path d="M8.31738 34.4785C9.41738 34.4785 10.2479 34.6458 10.8086 34.9805C11.391 35.3151 11.6071 35.7725 11.4561 36.3525C11.3913 36.6647 11.2508 36.8877 11.0352 37.0215C10.8411 37.1554 10.6036 37.2227 10.3232 37.2227C10.0645 37.2227 9.76215 37.2 9.41699 37.1553C8.14471 36.9992 7.01252 37.0884 6.02051 37.4229C5.04991 37.7353 4.27283 38.2598 3.69043 38.9961C3.18101 39.6402 2.89474 40.3955 2.83105 41.2617L2.81738 41.6396V51.5781C2.81738 52.0243 2.69814 52.3708 2.46094 52.6162C2.24532 52.8614 1.92208 52.9843 1.49121 52.9844C1.05981 52.9844 0.724505 52.8617 0.487305 52.6162C0.25007 52.3708 0.131836 52.0243 0.131836 51.5781V36.085C0.131836 35.6387 0.250072 35.2924 0.487305 35.0469C0.724505 34.8015 1.05981 34.6787 1.49121 34.6787C1.92209 34.6788 2.24532 34.8018 2.46094 35.0469C2.69814 35.2924 2.81738 35.6387 2.81738 36.085V37.2656C3.38294 36.5114 4.06174 35.8939 4.85547 35.415C5.91234 34.7904 7.06633 34.4785 8.31738 34.4785Z" fill="white"/>
<path d="M75.125 26.8486C75.5138 26.8487 75.8255 26.9824 76.0635 27.25C76.3225 27.4954 76.4521 27.83 76.4521 28.2539V47.0605C76.4521 47.9753 76.6237 48.7345 76.9697 49.3369C77.3356 49.9167 77.7996 50.2069 78.3604 50.207H79.1699C79.5149 50.2071 79.7948 50.3407 80.0107 50.6084C80.2266 50.8537 80.3339 51.1768 80.334 51.5781C80.334 52.0019 80.1726 52.3484 79.8486 52.6162C79.5467 52.8616 79.1472 52.9844 78.6514 52.9844H78.3604C77.4546 52.9843 76.6567 52.7386 75.9668 52.248C75.2758 51.7348 74.7366 51.032 74.3486 50.1396C73.9606 49.2474 73.7666 48.2206 73.7666 47.0605V28.2539C73.7666 27.83 73.8851 27.4954 74.1221 27.25C74.3811 26.9823 74.7151 26.8486 75.125 26.8486Z" fill="white"/>
<path d="M84.4463 26.8486C84.8341 26.8487 85.1469 26.9823 85.3848 27.25C85.6428 27.4954 85.7725 27.83 85.7725 28.2539V47.0605C85.7725 47.9753 85.945 48.7345 86.29 49.3369C86.657 49.9167 87.1209 50.207 87.6807 50.207H88.4912C88.835 50.2071 89.1161 50.3408 89.3311 50.6084C89.5478 50.8537 89.6552 51.1769 89.6553 51.5781C89.6553 52.0019 89.4929 52.3484 89.1699 52.6162C88.8679 52.8617 88.4687 52.9844 87.9717 52.9844H87.6807C86.7758 52.9843 85.978 52.7386 85.2881 52.248C84.5971 51.7349 84.0579 51.032 83.6699 50.1396C83.2809 49.2473 83.0869 48.2206 83.0869 47.0605V28.2539C83.0869 27.8301 83.2055 27.4954 83.4424 27.25C83.7014 26.9822 84.0363 26.8486 84.4463 26.8486Z" fill="white"/>
</svg>
