<svg width="203" height="51" viewBox="0 0 203 51" fill="none" xmlns="http://www.w3.org/2000/svg">
<path fill-rule="evenodd" clip-rule="evenodd" d="M51.2002 24.0996C52.6001 24.0997 53.9002 24.8001 54.7002 26L55.2002 26.7002L60.2998 34.7998C61.0998 36.1998 61.0998 37.9004 60.2998 39.4004L55.2002 47.5996L54.7998 48.2002C54.0998 49.4001 52.6997 50.0996 51.2998 50.0996H39.7998C38.3999 50.0996 37.0998 49.4001 36.2998 48.2002L32.2002 41.5996L32.7002 40.7002L42.5 25L43 24L51.2002 24.0996ZM52.7998 27.4004C52.6998 27.4005 52.5003 27.5003 52.4004 27.7002L47.2998 35.7998C47.0998 35.9998 47.1 36.2004 47 36.4004C46.9001 36.9002 46.9 37.3003 47 37.7002C47.0001 37.8001 47.0996 37.9001 47.0996 38C47.1996 38.0999 47.2 38.1999 47.2998 38.2998L52.4004 46.5C52.6004 46.7998 52.9 46.7998 53 46.7998C53.1 46.7998 53.3 46.7996 53.5 46.5996C53.5999 46.5996 53.5996 46.5 53.5996 46.5L58.7002 38.2998C59.2 37.4999 59.2001 36.5997 58.7002 35.7998L53.5996 27.7002C53.3996 27.4003 53.1 27.4004 53 27.4004H52.7998Z" fill="white"/>
<path fill-rule="evenodd" clip-rule="evenodd" d="M36.2002 0C37.6001 6.48468e-05 38.9002 0.700446 39.7002 1.90039L40.0996 2.59961L45.2002 10.7002C46 12.0001 45.9999 13.7997 45.2002 15.0996L41.2998 21.4004L29.2002 40.7998L25.0996 47.4004L24.7002 48.0996C24.0002 49.2996 22.6001 49.9999 21.2002 50H9.7002C8.2002 50 6.89961 49.3 6.09961 48L0.599609 39.2002C0.199618 38.5002 0 37.8 0 37C0 36.3002 0.199809 35.5003 0.599609 34.9004L21.2002 1.90039C22.0002 0.700391 23.3002 0 24.7002 0H36.2002ZM38 3.2998C37.9001 3.2998 37.6004 3.30006 37.4004 3.59961L17.2002 35.7998C16.7002 36.4998 16.7002 37.5002 17.2002 38.2002L22.2998 46.4004C22.4998 46.7002 22.8004 46.7002 22.9004 46.7002C23.0007 46.7002 23.3003 46.6997 23.5 46.4004L43.5996 14.2002C43.8996 13.8002 44 13.4 44 13C44 12.5001 43.9001 12.1001 43.7002 11.7002L38.5996 3.59961C38.3996 3.30006 38.0999 3.2998 38 3.2998Z" fill="white"/>
<path fill-rule="evenodd" clip-rule="evenodd" d="M91.7998 14.4004C95.0998 14.4004 98.1998 15.4 100.8 17V15.2002H109.1V47.7998H100.8V46C98.1998 47.6999 95.0997 48.5996 91.7998 48.5996C82.3999 48.5995 74.7002 40.8999 74.7002 31.5C74.7002 22.1001 82.3999 14.4005 91.7998 14.4004ZM91.7998 22.2998C86.7999 22.2999 82.7002 26.4004 82.7002 31.4004C82.7005 36.4001 86.8 40.4999 91.7998 40.5C96.6998 40.5 100.8 36.6 100.9 31.5V31.2002C100.8 26.3002 96.7998 22.2998 91.7998 22.2998Z" fill="white"/>
<path fill-rule="evenodd" clip-rule="evenodd" d="M185.4 14.4004C194.9 14.4006 202.5 22.0001 202.5 31.5C202.5 40.8998 194.8 48.5994 185.4 48.5996C176 48.5996 168.3 40.9 168.3 31.5C168.3 22.1 176 14.4004 185.4 14.4004ZM185.4 22.2998C180.4 22.2998 176.3 26.4004 176.3 31.4004C176.3 36.4002 180.401 40.5 185.4 40.5C190.4 40.4998 194.5 36.5 194.5 31.4004C194.5 26.4005 190.4 22.3 185.4 22.2998Z" fill="white"/>
<path d="M147.2 15.2998H154.5V23.4004H147.2V36.9004C147.2 38.0002 147.5 38.9005 148 39.4004C148.6 39.9003 149.4 40.1998 150.5 40.2998C151.6 40.2998 152.9 40.3002 154.5 40.2002V47.7998C148.8 48.4998 144.8 47.9002 142.3 46.2002C139.9 44.5002 138.7 41.2998 138.7 36.7998V23.2998H125.9V36.7998C125.9 37.8998 126.2 38.7998 126.7 39.2998C127.3 39.7998 128.1 40.1002 129.2 40.2002C130.3 40.2002 131.6 40.1996 133.2 40.0996V47.7002C127.5 48.4002 123.5 47.7996 121 46.0996C118.6 44.3996 117.4 41.2 117.4 36.7002V23.2998H111.7V15.2002H117.4V8.7002L125.8 6.2002V15.2998H138.8V8.7002L147.2 6.2002V15.2998Z" fill="white"/>
<path d="M165.6 47.7002H157.2V15.2002H165.6V47.7002Z" fill="white"/>
<path d="M165.6 10.2002H157.3V1.90039H165.6V10.2002Z" fill="white"/>
</svg>
