<svg width="129" height="40" viewBox="0 0 129 40" fill="none" xmlns="http://www.w3.org/2000/svg">
<path d="M30.2077 17.6516C35.0821 17.6516 39.0335 13.7002 39.0335 8.82582C39.0335 3.95145 35.0821 0 30.2077 0C25.3333 0 21.3818 3.95145 21.3818 8.82582C21.3818 13.7002 25.3333 17.6516 30.2077 17.6516Z" fill="white"/>
<path d="M30.2077 39.03C35.0821 39.03 39.0335 35.0786 39.0335 30.2043C39.0335 25.3299 35.0821 21.3784 30.2077 21.3784C25.3333 21.3784 21.3818 25.3299 21.3818 30.2043C21.3818 35.0786 25.3333 39.03 30.2077 39.03Z" fill="white"/>
<path d="M19.4998 0.0303726C8.73029 0.0303726 0 8.76066 0 19.5302C0 30.2998 8.73029 39.03 19.4998 39.03V0.0303726Z" fill="white"/>
<path d="M81.1769 13.0211H84.6057L91.8482 30.0394H87.9606L86.4156 26.2503H79.2714L77.7263 30.0394H73.9371L81.1796 13.0211H81.1769ZM85.0861 22.9662L82.8421 17.4872L80.5981 22.9662H85.0888H85.0861Z" fill="white"/>
<path d="M92.1461 30.236H87.8301L86.285 26.4469H79.4057L77.8606 30.236H73.6401L81.0491 12.8245H84.7371L84.7891 12.9446L92.1461 30.236ZM88.0949 29.8429H91.551L84.4778 13.2204H81.3112L74.238 29.8429H77.5958L79.1409 26.0537H86.5498L88.0949 29.8429ZM85.3842 23.1655H80.3065L82.8453 16.9686L85.3842 23.1655ZM84.7945 22.7724L82.8426 18.0115L80.8907 22.7724H84.7945Z" fill="white"/>
<path d="M95.3479 13.142H103.071C105.219 13.142 106.885 13.7452 107.996 14.8564C108.937 15.7982 109.445 17.125 109.445 18.7192V18.7684C109.445 21.4955 107.974 23.2099 105.825 24.0071L109.953 30.0429H105.607L101.987 24.635H99.0661V30.0429H95.3479V13.142ZM102.831 21.3482C104.641 21.3482 105.678 20.3818 105.678 18.9594V18.9104C105.678 17.316 104.567 16.4971 102.757 16.4971H99.0633V21.3482H102.831Z" fill="white"/>
<path d="M110.324 30.2367H105.5L101.88 24.8288H99.2624V30.2367H95.1511V12.9455H103.073C105.227 12.9455 106.977 13.5569 108.137 14.7172C109.123 15.7027 109.644 17.0867 109.644 18.7192V18.7684C109.644 21.2827 108.399 23.169 106.128 24.0999L110.327 30.2395L110.324 30.2367ZM105.71 29.8436H109.576L105.517 23.9088L105.754 23.8214C107.348 23.2318 109.246 21.8751 109.246 18.7684V18.7192C109.246 17.1932 108.765 15.9074 107.856 14.9957C106.772 13.9119 105.118 13.3386 103.071 13.3386H95.5442V29.8409H98.8665V24.433H102.091L105.71 29.8409V29.8436ZM102.83 21.5474H98.8665V16.3005H102.757C104.739 16.3005 105.874 17.2533 105.874 18.9104V18.9595C105.874 20.5319 104.679 21.5474 102.828 21.5474H102.83ZM102.83 21.1543C104.466 21.1543 105.481 20.3135 105.481 18.9622V18.913C105.481 17.4826 104.515 16.6964 102.757 16.6964H99.2596V21.1543H102.83Z" fill="white"/>
<path d="M111.76 13.142H115.863L120.28 25.0417L124.697 13.142H128.705L121.875 30.1603H118.591L111.76 13.142Z" fill="white"/>
<path d="M118.46 30.3569L111.471 12.9455H116.003L120.283 24.4766L124.564 12.9455H129L122.011 30.3569H118.46ZM118.725 29.9638H121.741L128.413 13.3413H124.834L120.28 25.6096L115.727 13.3413H112.053L118.725 29.9638Z" fill="white"/>
<path d="M68.8616 23.1763C68.1792 25.333 66.1617 26.8972 63.7758 26.8972C60.8302 26.8972 58.4416 24.5086 58.4416 21.5629C58.4416 18.6174 60.8302 16.2288 63.7758 16.2288C66.0962 16.2288 68.0672 17.711 68.8016 19.7776H72.7245C71.8946 15.5927 68.2037 12.4369 63.7731 12.4369C58.7337 12.4369 54.6469 16.5236 54.6469 21.5629C54.6469 26.6024 58.7337 30.6891 63.7731 30.6891C68.2638 30.6891 71.9956 27.446 72.7573 23.1763H68.8589H68.8616Z" fill="white"/>
</svg>
