<svg width="157" height="22" viewBox="0 0 157 22" fill="none" xmlns="http://www.w3.org/2000/svg">
<path d="M10.2875 21.4393C8.8192 21.4393 7.45311 21.1698 6.18924 20.6308C4.94396 20.0918 3.85666 19.3483 2.92734 18.4004C2.01661 17.434 1.30104 16.3002 0.780625 14.9992C0.260208 13.6981 0 12.267 0 10.7057C0 9.16305 0.250915 7.7412 0.752745 6.44016C1.27316 5.12053 1.99803 3.98676 2.92734 3.03886C3.85666 2.07237 4.94396 1.32892 6.18924 0.808503C7.43452 0.269502 8.80062 0 10.2875 0C11.7558 0 13.0662 0.250915 14.2185 0.752744C15.3895 1.25458 16.3745 1.91439 17.1737 2.73219C17.973 3.5314 18.5491 4.40496 18.9023 5.35286L15.947 6.74683C15.501 5.63165 14.7854 4.73021 13.8003 4.04252C12.8338 3.33624 11.6629 2.9831 10.2875 2.9831C8.91213 2.9831 7.69473 3.30836 6.63531 3.95888C5.57589 4.60941 4.7488 5.51084 4.15404 6.66319C3.57786 7.81554 3.28978 9.16305 3.28978 10.7057C3.28978 12.2484 3.57786 13.6052 4.15404 14.7761C4.7488 15.9285 5.57589 16.8299 6.63531 17.4804C7.69473 18.1124 8.91213 18.4283 10.2875 18.4283C11.6629 18.4283 12.8338 18.0845 13.8003 17.3968C14.7854 16.7091 15.501 15.8077 15.947 14.6925L18.9023 16.0864C18.5491 17.0158 17.973 17.8893 17.1737 18.7071C16.3745 19.5249 15.3895 20.1847 14.2185 20.6866C13.0662 21.1884 11.7558 21.4393 10.2875 21.4393Z" fill="white"/>
<path d="M55.8206 21.1048V0H58.9709V21.1048H55.8206Z" fill="white"/>
<path fill-rule="evenodd" clip-rule="evenodd" d="M87.8094 21.4393C86.6385 21.4393 85.5697 21.1977 84.6033 20.7144C83.8577 20.3343 83.2443 19.822 82.7632 19.1774V21.1048H79.7522V0H82.9026V7.75681C83.381 7.21089 83.9572 6.76271 84.6311 6.41228C85.5604 5.92903 86.6199 5.68741 87.8094 5.68741C89.2405 5.68741 90.523 6.03126 91.6568 6.71895C92.8091 7.40664 93.7105 8.34525 94.3611 9.53478C95.0302 10.7243 95.3647 12.0625 95.3647 13.5494C95.3647 15.0363 95.0302 16.3745 94.3611 17.5641C93.7105 18.7536 92.8184 19.7015 91.6846 20.4078C90.5509 21.0955 89.2591 21.4393 87.8094 21.4393ZM87.5027 18.512C88.3949 18.512 89.1848 18.2982 89.8725 17.8707C90.5602 17.4433 91.0992 16.8578 91.4895 16.1143C91.8984 15.3523 92.1028 14.4973 92.1028 13.5494C92.1028 12.6015 91.8984 11.7558 91.4895 11.0124C91.0992 10.2689 90.5602 9.68347 89.8725 9.25598C89.1848 8.8285 88.3949 8.61476 87.5027 8.61476C86.6292 8.61476 85.8392 8.8285 85.133 9.25598C84.4453 9.68347 83.897 10.2689 83.4881 11.0124C83.0978 11.7558 82.9026 12.6015 82.9026 13.5494C82.9026 14.4973 83.0978 15.3523 83.4881 16.1143C83.897 16.8578 84.4453 17.4433 85.133 17.8707C85.8392 18.2982 86.6292 18.512 87.5027 18.512Z" fill="white"/>
<path d="M131.454 21.1048V0H134.605V12.5608L140.933 6.02196H144.864L139.177 12.0718L145.115 21.1048H141.491L136.868 14.1212L134.605 16.5256V21.1048H131.454Z" fill="white"/>
<path d="M121.712 21.4393C120.207 21.4393 118.868 21.0955 117.697 20.4078C116.545 19.7015 115.625 18.7536 114.937 17.5641C114.268 16.3745 113.934 15.027 113.934 13.5215C113.934 12.0346 114.268 10.6964 114.937 9.5069C115.607 8.31738 116.527 7.38806 117.697 6.71896C118.868 6.03126 120.207 5.68741 121.712 5.68741C122.734 5.68741 123.692 5.87328 124.584 6.245C125.476 6.59814 126.247 7.09068 126.898 7.72262C127.567 8.35455 128.059 9.08871 128.375 9.92509L125.615 11.2075C125.299 10.4269 124.788 9.80428 124.082 9.33962C123.394 8.85638 122.604 8.61476 121.712 8.61476C120.857 8.61476 120.086 8.8285 119.398 9.25599C118.729 9.66489 118.199 10.2504 117.809 11.0124C117.419 11.7558 117.224 12.6015 117.224 13.5494C117.224 14.4973 117.419 15.3523 117.809 16.1143C118.199 16.8578 118.729 17.4433 119.398 17.8707C120.086 18.2982 120.857 18.512 121.712 18.512C122.623 18.512 123.413 18.2796 124.082 17.815C124.77 17.3317 125.281 16.6905 125.615 15.8913L128.375 17.2016C128.078 18.0008 127.595 18.7257 126.926 19.3762C126.275 20.0082 125.504 20.51 124.612 20.8817C123.719 21.2534 122.753 21.4393 121.712 21.4393Z" fill="white"/>
<path fill-rule="evenodd" clip-rule="evenodd" d="M100.241 20.9096C101.022 21.2627 101.924 21.4393 102.946 21.4393C103.801 21.4393 104.572 21.3185 105.26 21.0769C105.966 20.8353 106.589 20.4914 107.128 20.0453C107.392 19.8336 107.634 19.6031 107.853 19.3536V21.1048H110.864V10.9566C110.864 9.9158 110.603 9.00507 110.083 8.22444C109.581 7.42524 108.865 6.80259 107.936 6.35652C107.025 5.91045 105.975 5.68741 104.786 5.68741C103.838 5.68741 102.936 5.8454 102.081 6.16137C101.245 6.47733 100.511 6.92341 99.879 7.49958C99.2471 8.05717 98.7917 8.70769 98.5129 9.45114L101.134 10.7615C101.431 10.0738 101.886 9.51619 102.5 9.08871C103.132 8.64264 103.866 8.4196 104.702 8.4196C105.613 8.4196 106.338 8.66123 106.877 9.14447C107.434 9.60912 107.713 10.2132 107.713 10.9566V11.532L102.918 12.3227C101.766 12.5086 100.808 12.8246 100.046 13.2706C99.2842 13.7167 98.7174 14.265 98.3456 14.9155C97.9925 15.566 97.8159 16.3002 97.8159 17.118C97.8159 17.9916 98.0297 18.7536 98.4572 19.4041C98.8847 20.036 99.4794 20.5379 100.241 20.9096ZM107.713 14.0177V14.8319C107.713 15.5939 107.537 16.2909 107.183 16.9228C106.83 17.5362 106.328 18.0287 105.678 18.4004C105.046 18.7722 104.303 18.958 103.448 18.958C102.76 18.958 102.193 18.7815 101.747 18.4283C101.319 18.0566 101.106 17.5827 101.106 17.0065C101.106 16.4117 101.301 15.9285 101.691 15.5567C102.081 15.1664 102.695 14.8969 103.531 14.7482L107.713 14.0177Z" fill="white"/>
<path fill-rule="evenodd" clip-rule="evenodd" d="M65.721 20.4078C66.892 21.0955 68.2302 21.4393 69.7357 21.4393C70.7579 21.4393 71.6965 21.2813 72.5515 20.9654C73.425 20.6308 74.1685 20.1847 74.7818 19.6271C75.4138 19.051 75.8784 18.4097 76.1758 17.7035L73.6109 16.4489C73.2392 17.0994 72.7281 17.6291 72.0775 18.038C71.4456 18.4469 70.6743 18.6514 69.7635 18.6514C68.8714 18.6514 68.0722 18.4376 67.3659 18.0101C66.6782 17.5827 66.1392 16.9879 65.7489 16.2259C65.4933 15.7019 65.3476 15.1164 65.3116 14.4694H76.5382C76.594 14.2464 76.6312 14.0048 76.6498 13.7446C76.6684 13.4844 76.6776 13.2335 76.6776 12.9918C76.6776 12.0068 76.5104 11.0774 76.1758 10.2039C75.8598 9.33033 75.3952 8.559 74.7818 7.88989C74.1685 7.2022 73.4157 6.66319 72.5236 6.27288C71.6315 5.88257 70.6185 5.68741 69.4847 5.68741C68.0722 5.68741 66.8083 6.03126 65.6931 6.71896C64.578 7.38806 63.6858 8.30808 63.0167 9.47902C62.3662 10.65 62.0409 11.9975 62.0409 13.5215C62.0409 15.0084 62.3662 16.356 63.0167 17.5641C63.6672 18.7536 64.5687 19.7015 65.721 20.4078ZM73.3481 11.9603H65.3904C65.4617 11.523 65.5812 11.1234 65.7489 10.7615C66.102 9.98085 66.6039 9.38609 67.2544 8.97719C67.9049 8.5497 68.6484 8.33596 69.4847 8.33596C70.3211 8.33596 71.046 8.5497 71.6593 8.97719C72.2913 9.38609 72.7559 9.95298 73.0533 10.6778C73.2302 11.0733 73.3285 11.5008 73.3481 11.9603Z" fill="white"/>
<path d="M42.0636 20.4078C43.2345 21.0955 44.5727 21.4393 46.0782 21.4393C47.119 21.4393 48.0855 21.2534 48.9777 20.8817C49.8698 20.51 50.6411 20.0082 51.2917 19.3762C51.9608 18.7257 52.444 18.0008 52.7414 17.2016L49.9813 15.8913C49.6468 16.6905 49.1356 17.3317 48.448 17.815C47.7788 18.2796 46.9889 18.512 46.0782 18.512C45.2232 18.512 44.4519 18.2982 43.7642 17.8707C43.0951 17.4433 42.5654 16.8578 42.1751 16.1143C41.7848 15.3523 41.5896 14.4973 41.5896 13.5494C41.5896 12.6015 41.7848 11.7558 42.1751 11.0124C42.5654 10.2504 43.0951 9.66489 43.7642 9.25599C44.4519 8.8285 45.2232 8.61476 46.0782 8.61476C46.9703 8.61476 47.7603 8.85638 48.448 9.33962C49.1542 9.80428 49.6654 10.4269 49.9813 11.2075L52.7414 9.92509C52.4254 9.08871 51.9329 8.35455 51.2638 7.72262C50.6133 7.09068 49.8419 6.59814 48.9498 6.245C48.0576 5.87328 47.1004 5.68741 46.0782 5.68741C44.5727 5.68741 43.2345 6.03126 42.0636 6.71896C40.8926 7.38806 39.9726 8.31738 39.3035 9.5069C38.6344 10.6964 38.2998 12.0346 38.2998 13.5215C38.2998 15.027 38.6344 16.3745 39.3035 17.5641C39.9912 18.7536 40.9112 19.7015 42.0636 20.4078Z" fill="white"/>
<path d="M28.8123 21.1048V6.02197H31.8233V7.9486C32.1519 7.30418 32.598 6.81995 33.1615 6.49592C33.905 6.04985 34.7971 5.82681 35.838 5.82681H36.758V8.6984H35.4476C34.4068 8.6984 33.5611 9.02365 32.9106 9.67418C32.2787 10.3061 31.9627 11.2168 31.9627 12.4064V21.1048H28.8123Z" fill="white"/>
<path d="M21.9786 6.02197V21.1048H25.129V6.02197H21.9786Z" fill="white"/>
<path d="M21.9786 0.334555V3.95888H25.129V0.334555H21.9786Z" fill="white"/>
<path d="M153.602 21.5545C155.341 21.5545 156.75 20.1452 156.75 18.4068C156.75 16.6684 155.341 15.2591 153.602 15.2591C151.864 15.2591 150.455 16.6684 150.455 18.4068C150.455 20.1452 151.864 21.5545 153.602 21.5545Z" fill="white"/>
</svg>
