<svg width="202" height="44" viewBox="0 0 202 44" fill="none" xmlns="http://www.w3.org/2000/svg">
<path fill-rule="evenodd" clip-rule="evenodd" d="M71.6299 12.4912C75.0195 12.4912 78.1417 13.4916 80.7285 15.2324V13.3174H89.8721V43.1729H80.7285V41.2578C78.1416 42.9987 75.0196 44 71.6299 44C62.7096 44 55.4844 36.9494 55.4844 28.2451C55.4845 19.541 62.7097 12.4912 71.6299 12.4912ZM72.3877 20.5859C67.794 20.5861 64.092 24.0238 64.0918 28.2451C64.0918 32.4666 67.7939 35.9051 72.3877 35.9053C76.9816 35.9053 80.6836 32.4667 80.6836 28.2451C80.6834 24.0237 76.9815 20.5859 72.3877 20.5859Z" fill="white"/>
<path fill-rule="evenodd" clip-rule="evenodd" d="M168.236 12.4912C171.626 12.4912 174.748 13.4917 177.335 15.2324V13.3174H186.479V43.1729H177.335V41.2578C174.748 42.9987 171.626 44 168.236 44C159.316 43.9999 152.091 36.9493 152.091 28.2451C152.091 19.5411 159.316 12.4913 168.236 12.4912ZM168.995 20.5859C164.401 20.5859 160.699 24.0237 160.699 28.2451C160.699 32.4667 164.401 35.9053 168.995 35.9053C173.589 35.9051 177.336 32.4666 177.291 28.2451C177.291 24.0238 173.589 20.5861 168.995 20.5859Z" fill="white"/>
<path d="M196.246 32.5977C199.413 32.5977 202 35.0784 202 38.2119C202 41.3018 199.413 43.8262 196.246 43.8262C193.08 43.8261 190.493 41.3018 190.493 38.2119C190.493 35.122 193.079 32.5977 196.246 32.5977Z" fill="white"/>
<path d="M135.856 12.4912C143.215 12.4914 148.88 17.235 148.88 24.1982V43.2168H139.736V27.4619C139.736 23.11 137.417 20.7599 133.403 20.7598C129.657 20.7598 126.534 22.9796 126.534 27.5059V43.1729H117.302V13.3174H126.4V16.6689C128.72 13.5789 132.199 12.4912 135.856 12.4912Z" fill="white"/>
<path d="M10.1689 43.1729H0V0H10.1689V43.1729Z" fill="white"/>
<path d="M35.5469 0C35.5469 9.35707 31.8009 18.0618 25.1553 24.5029L39.2051 43.1729H26.6719L11.418 22.8926L15.3428 20.0195C21.8546 15.2322 25.6016 7.96438 25.6016 0H35.5469Z" fill="white"/>
<path d="M51.7373 43.1729H42.1484V0H51.7373V43.1729Z" fill="white"/>
<path d="M104.056 17.1914C105.884 14.8848 109.319 13.3174 113.021 13.3174V22.0215C113.021 22.0215 112.975 22.0215 112.931 22.0215C109.318 22.0216 104.1 24.5461 104.1 29.2461V43.1729H94.6895V13.3174H104.056V17.1914Z" fill="white"/>
<path fill-rule="evenodd" clip-rule="evenodd" d="M192.768 13.4912C193.258 13.4912 193.57 13.7526 193.57 14.1875C193.57 14.4921 193.437 14.7103 193.169 14.8408L193.57 15.7549H193.124L192.768 14.9277H192.321V15.7549H191.92V13.4912H192.768ZM192.321 14.5361H192.768C193.08 14.5361 193.169 14.4051 193.169 14.1875C193.169 13.9702 193.035 13.8399 192.768 13.8398H192.321V14.5361Z" fill="white"/>
<path fill-rule="evenodd" clip-rule="evenodd" d="M192.634 12.5342C193.838 12.5342 194.819 13.4919 194.819 14.667C194.819 15.8419 193.838 16.7988 192.634 16.7988C191.43 16.7988 190.493 15.8419 190.448 14.667C190.448 13.4919 191.43 12.5342 192.634 12.5342ZM192.634 12.9258C191.697 12.9258 190.895 13.7095 190.895 14.667C190.895 15.6243 191.653 16.4072 192.634 16.4072C193.57 16.4072 194.373 15.6243 194.373 14.667C194.373 13.7095 193.615 12.9258 192.634 12.9258Z" fill="white"/>
</svg>
