<svg width="155" height="44" viewBox="0 0 155 44" fill="none" xmlns="http://www.w3.org/2000/svg">
<path d="M16.2129 0.0214825C19.1992 -0.253463 21.7178 2.14708 21.7178 5.13965V11.5762C21.718 15.9675 25.1533 19.7354 29.4531 19.6553C31.62 19.6133 33.3535 21.4713 33.3535 23.6728V40.0469C33.3533 42.2291 31.6201 44.0029 29.4795 44.0029C26.9234 44.0029 24.8506 41.8849 24.8506 39.2744V24.4141C24.8505 19.732 21.1002 15.7609 16.5156 15.8525C12.0733 15.9404 8.50293 19.6442 8.50293 24.2002V30.8281C8.50284 31.7948 8.24454 32.7537 7.67969 33.5332C6.85634 34.6531 5.62106 35.2922 4.28125 35.3037C1.89371 35.3189 0.00014098 33.2165 0 30.7744V23.6846C0 21.5022 1.70304 19.6593 3.84375 19.6631C8.14377 19.6707 11.6426 16.1046 11.6426 11.7207V5.30762C11.6426 2.62069 13.5931 0.266097 16.2129 0.0214825Z" fill="white"/>
<path d="M151.661 27.2275C153.459 27.2277 154.917 28.7165 154.917 30.5527C154.917 32.3889 153.459 33.8777 151.661 33.8779C149.863 33.8779 148.406 32.389 148.405 30.5527C148.405 28.7163 149.863 27.2275 151.661 27.2275Z" fill="white"/>
<path fill-rule="evenodd" clip-rule="evenodd" d="M76.5488 13.1777C82.3048 13.1777 86.624 17.5119 86.624 23.2412C86.6238 28.9703 82.2672 33.3047 76.5488 33.3047C70.8305 33.3046 66.4748 28.9703 66.4746 23.2412C66.4746 17.5119 70.793 13.1778 76.5488 13.1777ZM76.5488 17.248C73.2293 17.2481 70.7178 19.8472 70.7178 23.2412C70.718 26.635 73.2257 29.2333 76.5488 29.2334C79.872 29.2334 82.3426 26.635 82.3428 23.2412C82.3428 19.851 79.8684 17.248 76.5488 17.248Z" fill="white"/>
<path fill-rule="evenodd" clip-rule="evenodd" d="M98.7275 13.1777C104.483 13.1779 108.802 17.512 108.802 23.2412C108.802 28.9702 104.446 33.3045 98.7275 33.3047C93.0092 33.3047 88.6525 28.9703 88.6523 23.2412C88.6523 17.5119 92.9716 13.1777 98.7275 13.1777ZM98.7275 17.248C95.4079 17.248 92.8965 19.8472 92.8965 23.2412C92.8967 26.635 95.4044 29.2334 98.7275 29.2334C102.05 29.2332 104.521 26.6349 104.521 23.2412C104.521 19.8511 102.047 17.2483 98.7275 17.248Z" fill="white"/>
<path fill-rule="evenodd" clip-rule="evenodd" d="M132.716 13.1777C135.486 13.1777 137.772 14.3849 139.322 16.3799V13.6279H143.454V27.0059C143.454 28.0988 144.083 28.7754 145.187 28.7754H145.52V32.8457H144.337C141.754 32.8456 140.13 31.7908 139.576 29.792C137.99 31.9782 135.591 33.2969 132.713 33.2969C127.398 33.2967 123.45 28.9626 123.45 23.2334L123.454 23.2412C123.454 17.512 127.402 13.1779 132.716 13.1777ZM133.528 17.248C130.209 17.248 127.698 19.8472 127.698 23.2412C127.698 26.635 130.171 29.2334 133.528 29.2334C136.886 29.2333 139.322 26.635 139.322 23.2412C139.322 19.8511 136.848 17.2481 133.528 17.248Z" fill="white"/>
<path d="M55.7373 13.1777C60.202 13.1778 63.1924 16.1932 63.1924 20.7529V27.0098C63.1925 28.1027 63.8213 28.7793 64.8916 28.7793H65.2617V32.8496H64.0791C60.7933 32.8496 59.0605 31.1521 59.0605 27.9492V22.1475C59.0604 19.2084 57.2154 17.248 54.375 17.248C51.3847 17.248 49.3936 19.2472 49.3936 22.2246V32.8535H45.2617V13.6318L45.2588 13.6279H49.3896V16.0781C50.9016 14.1938 53.0802 13.1777 55.7373 13.1777Z" fill="white"/>
<path d="M117.103 13.6318H121.751V17.4766H117.103V26.2568C117.103 27.9536 118.136 28.9697 119.872 28.9697H121.755V32.8535H119.281C115.187 32.8535 112.971 30.7433 112.971 26.9365V17.4736H109.797V13.6279H111.717C112.675 13.6279 113.191 13.1005 113.191 12.1221V8.43066H117.103V13.6318Z" fill="white"/>
</svg>
