<svg width="270" height="49" viewBox="0 0 270 49" fill="none" xmlns="http://www.w3.org/2000/svg">
<path d="M30.2921 39.0678C26.85 45.0915 19.0192 45.0054 14.8026 39.2399L5.50898 25.2134C8.09055 22.2015 14.5445 19.706 17.1261 23.1481C21.5147 29.1718 21.945 29.3439 22.8055 28.2252C25.4732 23.8365 35.2831 5.85157 35.3692 5.67946H6.28345C3.27161 5.67946 -0.0844315 8.8634 0.00162096 12.5637V41.3912C0.00162096 44.4031 2.9274 48.2754 6.45556 48.2754H37.8647C41.3929 48.2754 44.2326 45.1775 44.1465 41.8215L44.2326 13.166C38.295 23.7505 30.2921 39.0678 30.2921 39.0678ZM78.5675 36.3141C79.1699 27.9671 58.4312 31.151 58.8615 17.985C59.4639 0.344211 83.3004 6.62604 86.0541 8.43314C86.0541 8.43314 83.1283 15.3173 83.0422 15.1452C83.0422 15.1452 68.4994 10.8426 68.3273 17.2105C68.0691 25.4715 88.3775 21.341 88.0333 36.2281C87.603 55.762 59.4639 45.952 58.1731 45.2636C58.1731 45.2636 61.271 38.2073 61.4431 38.1212C61.5291 38.1212 78.0512 43.5425 78.5675 36.3141ZM201.192 6.53999L205.495 5.85157V17.5547H215.907V25.1273H205.495V35.3676C205.409 43.3704 216.079 39.0678 216.079 38.9818L218.231 46.4683C217.198 46.8986 210.744 48.1033 208.851 48.2754C197.406 49.6523 196.804 39.412 196.718 35.4536L196.631 11.531C196.89 9.03551 198.697 6.97025 201.192 6.53999ZM127.617 0.68842L131.92 0L132.006 48.5336H123.315L123.229 5.67946C123.229 3.18394 125.036 1.11868 127.617 0.68842ZM240.69 25.9018C239.916 25.7297 235.699 24.3528 231.397 25.4715L231.483 48.5336H223.222L223.136 19.8781C231.483 16.1779 241.637 18.5873 242.067 18.7594L240.69 25.9018ZM261.515 41.8215V35.5397C261.171 35.4536 253.254 34.7652 253.082 38.6376C252.824 43.1983 261.085 41.9076 261.515 41.8215ZM257.04 17.8129C269.862 16.9523 269.002 27.9671 269.002 29.7742V47.0707C267.883 47.3289 259.966 48.5336 257.126 48.5336C255.319 48.5336 245.767 48.9638 245.595 38.8957C245.595 37.1747 246.112 27.1065 261.515 30.2044C261.515 30.2044 262.203 24.525 256.094 24.7831C253.856 24.8692 249.21 25.8157 247.747 25.9878L246.8 19.3618C247.316 19.1036 254.029 17.985 257.04 17.8129ZM167.976 33.2163C167.976 22.3736 177.958 13.5963 192.673 19.9642L190.866 26.3321C178.216 22.2876 177.012 30.8068 177.012 33.2163C177.012 35.7118 177.872 44.317 191.985 40.1004L193.189 46.6404C176.065 52.4059 168.062 43.6286 167.976 33.2163ZM155.584 30.2905C154.896 24.8692 151.196 24.611 150.249 24.611C145.258 24.611 144.742 29.602 144.57 30.2905H155.584ZM136.051 33.4744C135.965 30.8928 136.997 17.5547 150.163 17.7268C164.104 17.8989 163.759 33.1302 163.501 35.9699H144.57C144.57 43.1123 157.392 40.8749 160.748 40.1004L161.866 46.8986C157.822 47.9312 136.825 53.5246 136.051 33.4744ZM111.181 30.2905C110.493 24.8692 106.793 24.611 105.846 24.611C100.855 24.611 100.339 29.602 100.167 30.2905H111.181ZM91.6475 33.4744C91.5614 30.8928 92.5941 17.5547 105.76 17.7268C119.701 17.8989 119.356 33.1302 119.098 35.9699H100.253C100.253 43.1123 113.075 40.8749 116.431 40.1004L117.549 46.8986C113.419 47.9312 92.422 53.5246 91.6475 33.4744Z" fill="white"/>
</svg>
