<svg width="102" height="20" viewBox="0 0 102 20" fill="none" xmlns="http://www.w3.org/2000/svg">
<path d="M6.11035 0C6.81963 0 7.56037 0.0470944 8.31641 0.140625C9.07232 0.234141 9.73473 0.343114 10.2959 0.475586V2.72754C9.64131 2.43146 8.90111 2.15854 8.0752 1.91699C7.24901 1.67537 6.44541 1.55078 5.6582 1.55078C4.64515 1.55085 3.82658 1.81576 3.20312 2.33789C2.57191 2.86001 2.26085 3.54613 2.26074 4.3877C2.26074 5.54904 2.96227 6.57042 4.36523 7.45117C5.71354 8.19935 7.06186 8.94026 8.41016 9.67285C9.58697 10.4601 10.4055 11.1694 10.8652 11.793C11.325 12.4164 11.5508 13.3203 11.5508 14.5049C11.5508 16.3208 10.9119 17.6926 9.6416 18.6201C8.3712 19.5476 6.71877 20.0078 4.7002 20.0078C3.64798 20.0078 2.77472 19.945 2.07324 19.8281C1.37195 19.7035 0.748614 19.5709 0.203125 19.4229V17.0068C1.09934 17.4355 1.99536 17.7711 2.88379 18.0049C3.77233 18.2387 4.49741 18.3555 5.05859 18.3555C6.29781 18.3554 7.2644 18.0669 7.98145 17.4824C8.69063 16.9056 9.04883 16.056 9.04883 14.957C9.0488 13.6087 8.15278 12.4086 6.35254 11.3643C4.98866 10.655 3.87396 10.0624 3.02441 9.59473C2.17484 9.12708 1.45762 8.51878 0.873047 7.77832C0.28856 7.03789 0 6.07919 0 4.90234C5.29995e-05 3.35145 0.54563 2.14347 1.62891 1.29395C2.72783 0.428838 4.21651 4.87805e-05 6.11035 0Z" fill="white"/>
<path d="M41.7158 0.015625C42.425 0.015625 43.1659 0.0627194 43.9219 0.15625C44.6778 0.249765 45.3402 0.35874 45.9014 0.491211V2.7207C45.2506 2.42732 44.5157 2.15664 43.6963 1.91699C42.8701 1.67537 42.0665 1.55078 41.2793 1.55078C40.2662 1.55085 39.4476 1.81576 38.8242 2.33789C38.2007 2.8601 37.8818 3.54689 37.8818 4.38867C37.882 5.54971 38.5829 6.5706 39.9854 7.45117C41.3338 8.19942 42.6828 8.94019 44.0312 9.67285C45.2081 10.46 46.0266 11.1695 46.4863 11.793C46.9461 12.4164 47.1718 13.3204 47.1719 14.5049C47.1719 16.3208 46.533 17.6925 45.2627 18.6201C43.9924 19.5476 42.3399 20.0078 40.3213 20.0078C39.2691 20.0078 38.3958 19.945 37.6943 19.8281C36.993 19.7111 36.3688 19.5709 35.8232 19.4229V17.0068C36.7196 17.4355 37.6164 17.7711 38.5049 18.0049C39.3935 18.2387 40.1185 18.3555 40.6797 18.3555C41.9189 18.3554 42.8855 18.067 43.6025 17.4824C44.3117 16.9056 44.6699 16.056 44.6699 14.957C44.6698 13.6088 43.7738 12.4087 41.9736 11.3643C40.6098 10.6551 39.4951 10.0624 38.6455 9.59473C37.796 9.12707 37.0787 8.51877 36.4941 7.77832C35.9097 7.03789 35.6211 6.07919 35.6211 4.90234C35.6212 3.35146 36.1667 2.14346 37.25 1.29395C38.3333 0.444429 39.822 0.0156814 41.7158 0.015625Z" fill="white"/>
<path d="M56.8418 18.0361H63.6387V19.6973H54.5117V0.3125H56.8418V18.0361Z" fill="white"/>
<path d="M79.877 1.85547H72.8535V8.76953H79.5098V10.3672H72.8535V18.0361H80.1572V19.6973H70.5234V0.3125H79.877V1.85547Z" fill="white"/>
<path fill-rule="evenodd" clip-rule="evenodd" d="M101.558 19.6973H99.1562L97.1455 13.5703H90.0449L88.042 19.6973H85.9375L92.4531 0.3125H95.0098L101.558 19.6973ZM90.4971 12.0195H96.6543L93.6152 2.49512L90.4971 12.0195Z" fill="white"/>
<path d="M24.668 10.7334V19.6963H22.3379V10.7334H22.3457L16.4453 0.3125H19.0879L23.6943 8.56641L28.4561 0.304688H30.7949L24.668 10.7334Z" fill="white"/>
<path d="M45.917 2.72754L45.9014 2.73535V2.7207C45.9066 2.72304 45.9118 2.7252 45.917 2.72754Z" fill="white"/>
</svg>
