<svg width="148" height="31" viewBox="0 0 148 31" fill="none" xmlns="http://www.w3.org/2000/svg">
<path d="M41.8903 0.471214L30.5889 28.1906C30.2723 28.9662 29.7319 29.63 29.0365 30.0973C28.3411 30.5644 27.5222 30.8139 26.6844 30.8137H15.2636C14.4264 30.8141 13.6082 30.5651 12.913 30.0987C12.2178 29.6322 11.6773 28.9693 11.3604 28.1944L0.0255775 0.471214C0.00429021 0.419342 -0.00390194 0.363103 0.00172414 0.307251C0.00735024 0.251527 0.0266216 0.197987 0.0578371 0.15138C0.0890526 0.104772 0.131253 0.0666369 0.180711 0.0401874C0.23017 0.0138662 0.285367 0 0.341432 0H11.7815C12.0665 0 12.322 0.177187 12.4235 0.444251L20.99 23.2923L29.4885 0.446817C29.5371 0.315725 29.6246 0.202481 29.7394 0.122619C29.8542 0.042757 29.9907 0 30.1305 0H41.5732C41.8158 0 41.9815 0.246521 41.8903 0.471214ZM42.9342 0.342815V30.4722C42.9342 30.6609 43.0882 30.815 43.277 30.815H74.6865C74.8739 30.815 75.028 30.6609 75.028 30.4722V22.9597C75.028 22.8691 74.992 22.782 74.9281 22.7178C74.864 22.6535 74.7772 22.6173 74.6865 22.6169H54.2458C54.1552 22.6165 54.0683 22.5803 54.0043 22.516C53.9403 22.4518 53.9043 22.3648 53.9043 22.2741V19.7999C53.9043 19.6125 54.0584 19.4584 54.2471 19.4584H74.2217C74.4104 19.4584 74.5645 19.3043 74.5645 19.1156V11.6609C74.5645 11.57 74.5284 11.4828 74.4641 11.4185C74.3997 11.3542 74.3126 11.3181 74.2217 11.3181H54.2471C54.1562 11.3181 54.069 11.282 54.0047 11.2177C53.9405 11.1534 53.9043 11.0662 53.9043 10.9753V8.54089C53.9043 8.35215 54.0584 8.19807 54.2471 8.19807H74.6865C74.8739 8.19807 75.028 8.044 75.028 7.85526V0.342815C75.028 0.252296 74.9923 0.165501 74.9285 0.101304C74.8648 0.0371056 74.7783 0.000641979 74.6877 0H43.277C43.1861 0 43.0989 0.0360809 43.0346 0.100407C42.9704 0.164734 42.9342 0.25191 42.9342 0.342815ZM76.4712 0.342815V30.4722C76.4712 30.6609 76.6252 30.815 76.8153 30.815H108.225C108.412 30.815 108.566 30.6609 108.566 30.4722V22.9597C108.566 22.8691 108.53 22.7823 108.466 22.7181C108.402 22.654 108.315 22.6176 108.225 22.6169H87.7841C87.6935 22.6165 87.6065 22.5803 87.5426 22.516C87.4785 22.4518 87.4426 22.3648 87.4426 22.2741V19.7999C87.4426 19.6125 87.5967 19.4584 87.7854 19.4584H107.76C107.949 19.4584 108.103 19.3043 108.103 19.1156V11.6609C108.103 11.57 108.067 11.4828 108.002 11.4185C107.938 11.3542 107.851 11.3181 107.76 11.3181H87.7841C87.6932 11.3181 87.606 11.282 87.5417 11.2177C87.4775 11.1534 87.4413 11.0662 87.4413 10.9753V8.54089C87.4413 8.35215 87.5954 8.19807 87.7841 8.19807H108.225C108.412 8.19807 108.566 8.044 108.566 7.85526V0.342815C108.566 0.252167 108.53 0.165374 108.466 0.101176C108.402 0.0371067 108.315 0.000641979 108.225 0H76.814C76.7233 0.000385188 76.6364 0.0365952 76.5725 0.100922C76.5084 0.165119 76.4712 0.252167 76.4712 0.342815ZM110.012 30.4722C110.012 30.6609 110.166 30.815 110.354 30.815H131.873C136.582 30.815 140.382 29.594 143.288 27.1326C146.195 24.6905 147.649 20.777 147.649 15.3882C147.649 9.99947 146.195 6.08597 143.288 3.64259C140.382 1.21976 136.584 0 131.873 0H110.354C110.263 0.000385188 110.176 0.0365952 110.112 0.100922C110.048 0.165119 110.012 0.252167 110.012 0.342815V30.4722ZM121.324 22.5592C121.233 22.5592 121.146 22.5231 121.081 22.4587C121.017 22.3944 120.981 22.3072 120.981 22.2163V8.59867C120.981 8.40993 121.135 8.25585 121.322 8.25585H129.354C131.834 8.25585 133.675 8.79897 134.877 9.88391C136.079 10.9689 136.679 12.8101 136.679 15.3882C136.679 17.9664 136.079 19.8461 134.877 20.9311C133.675 22.0173 131.834 22.5592 129.354 22.5592H121.324Z" fill="white"/>
</svg>
